<svg width="54" height="64" viewBox="0 0 54 64" fill="none" xmlns="http://www.w3.org/2000/svg">
<path d="M26.733 55C26.181 55 25.733 55.448 25.733 56V57C25.733 57.552 26.181 58 26.733 58C27.285 58 27.733 57.552 27.733 57V56C27.733 55.448 27.285 55 26.733 55Z" fill="#C29E66"/>
<path d="M26.733 61C26.181 61 25.733 61.448 25.733 62V63C25.733 63.552 26.181 64 26.733 64C27.285 64 27.733 63.552 27.733 63V62C27.733 61.448 27.285 61 26.733 61Z" fill="#C29E66"/>
<path d="M43.657 34.131C43.105 34.131 42.657 34.579 42.657 35.131V40.131C42.657 40.683 43.105 41.131 43.657 41.131C44.209 41.131 44.657 40.683 44.657 40.131V35.131C44.657 34.579 44.209 34.131 43.657 34.131Z" fill="#C29E66"/>
<path d="M46.998 48.667C46.446 48.667 45.998 49.115 45.998 49.667V53.667C45.998 54.219 46.446 54.667 46.998 54.667C47.55 54.667 47.998 54.219 47.998 53.667V49.667C47.998 49.114 47.55 48.667 46.998 48.667Z" fill="#C29E66"/>
<path d="M52.466 37.631C51.914 37.631 51.466 38.079 51.466 38.631V45.631C51.466 46.183 51.914 46.631 52.466 46.631C53.018 46.631 53.466 46.183 53.466 45.631V38.631C53.466 38.079 53.019 37.631 52.466 37.631Z" fill="#C29E66"/>
<path d="M9.81 34.131C9.258 34.131 8.81 34.579 8.81 35.131V40.131C8.81 40.683 9.258 41.131 9.81 41.131C10.362 41.131 10.81 40.683 10.81 40.131V35.131C10.81 34.579 10.362 34.131 9.81 34.131Z" fill="#C29E66"/>
<path d="M6.46799 48.667C5.91599 48.667 5.46799 49.115 5.46799 49.667V53.667C5.46799 54.219 5.91599 54.667 6.46799 54.667C7.01999 54.667 7.46799 54.219 7.46799 53.667V49.667C7.46799 49.114 7.02099 48.667 6.46799 48.667Z" fill="#C29E66"/>
<path d="M1 37.631C0.448 37.631 0 38.079 0 38.631V45.631C0 46.183 0.448 46.631 1 46.631C1.552 46.631 2 46.183 2 45.631V38.631C2 38.079 1.552 37.631 1 37.631Z" fill="#C29E66"/>
<path d="M46.616 29.149V24.96C46.616 24.671 46.491 24.397 46.274 24.207L31.733 11.506V8.01C31.733 4.85 29.871 0 26.733 0C23.629 0 21.733 4.854 21.733 8.01V11.506L7.19201 24.208C6.97401 24.397 6.85001 24.672 6.85001 24.961V29.15C6.85001 29.887 7.62001 30.365 8.27601 30.055L21.733 23.725V36.797C21.733 37.095 21.747 37.392 21.765 37.688L15.275 42.902C14.963 43.152 14.831 43.564 14.938 43.949L15.718 46.759C15.866 47.291 16.411 47.594 16.93 47.46L24.587 45.495L25.733 47.25V50.063C25.733 50.615 26.181 51.063 26.733 51.063C27.285 51.063 27.733 50.615 27.733 50.063V47.25L28.879 45.498L36.526 47.46C37.045 47.593 37.59 47.291 37.738 46.759L38.518 43.949C38.625 43.564 38.493 43.152 38.181 42.902L31.702 37.699C31.72 37.399 31.734 37.098 31.734 36.797V23.725L45.192 30.054C45.847 30.365 46.616 29.886 46.616 29.149ZM8.85001 27.574V25.414L21.733 14.161V21.514L8.85001 27.574ZM17.041 44.049L22.088 39.995C22.379 41.308 22.845 42.568 23.473 43.717L17.383 45.28L17.041 44.049ZM27.733 43.596V38.04C27.733 37.488 27.285 37.04 26.733 37.04C26.181 37.04 25.733 37.488 25.733 38.04V43.596L25.67 43.499C24.421 41.587 23.733 39.207 23.733 36.796V8.01C23.733 5.206 24.793 3.75 25.302 3.05C27.088 0.599 28.199 3.177 28.316 3.271C29.23 4.607 29.733 6.291 29.733 8.01V36.796C29.733 39.207 29.045 41.588 27.796 43.498L27.733 43.596ZM36.415 44.049L36.074 45.279L29.993 43.719C30.62 42.573 31.085 41.314 31.377 40.003L36.415 44.049ZM44.616 27.574L31.733 21.515V14.162L44.616 25.415V27.574Z" fill="#C29E66"/>
</svg>
