<svg width="37" height="41" viewBox="0 0 37 41" fill="none" xmlns="http://www.w3.org/2000/svg">
<path d="M28.0868 35.927C28.0848 35.933 28.0828 35.941 28.0808 35.9469L28.0749 35.9708C28.0729 35.9748 28.0709 35.9808 28.0709 35.9848C28.0689 35.9888 28.0689 35.9928 28.067 35.9948C28.065 35.9987 28.065 36.0027 28.063 36.0067L26.4217 40.3856C26.3247 40.6426 26.0831 40.8 25.8277 40.8C25.7545 40.8 25.6772 40.7861 25.604 40.7582C25.2773 40.6346 25.111 40.2661 25.2357 39.9374L26.287 37.1303C23.834 38.3017 21.1395 38.9153 18.401 38.9153C13.487 38.9153 8.86625 36.9889 5.38929 33.4924C1.91461 29.996 0 25.346 0 20.4014C0 17.0664 0.890933 13.7973 2.57579 10.9463C2.75398 10.6435 3.14204 10.5439 3.44295 10.7252C3.74389 10.9045 3.84288 11.2969 3.66271 11.5977C2.09266 14.2514 1.26508 17.2956 1.26508 20.4016C1.26508 29.9087 8.95088 37.6425 18.399 37.6425C20.959 37.6425 23.4776 37.0668 25.77 35.9691L22.8081 35.1522C22.4716 35.0586 22.2716 34.708 22.3646 34.3693C22.4577 34.0306 22.8062 33.8294 23.1428 33.923L27.6292 35.1602C27.641 35.1642 27.6529 35.1662 27.6668 35.1701C27.6687 35.1701 27.6707 35.1721 27.6727 35.1721C27.7024 35.1821 27.7301 35.194 27.7578 35.208C27.7638 35.21 27.7677 35.214 27.7737 35.216C27.8014 35.2299 27.8271 35.2478 27.8509 35.2658C27.8509 35.2658 27.8529 35.2678 27.8549 35.2678C27.8588 35.2717 27.8628 35.2757 27.8667 35.2777C27.8786 35.2877 27.8905 35.2976 27.9024 35.3076C27.9083 35.3136 27.9143 35.3196 27.9202 35.3255C27.9301 35.3355 27.938 35.3455 27.9479 35.3554C27.9538 35.3634 27.9598 35.3694 27.9657 35.3773C27.9736 35.3873 27.9816 35.3973 27.9875 35.4092C27.9934 35.4172 27.9994 35.4251 28.0033 35.4351C28.0053 35.4391 28.0093 35.4431 28.0113 35.4471C28.0152 35.453 28.0192 35.461 28.0231 35.469C28.0251 35.475 28.0291 35.4789 28.033 35.4849C28.035 35.4889 28.035 35.4909 28.037 35.4949C28.0429 35.5068 28.0489 35.5208 28.0528 35.5327C28.0568 35.5407 28.0588 35.5487 28.0627 35.5566C28.0687 35.5706 28.0726 35.5865 28.0766 35.6025C28.0786 35.6084 28.0806 35.6144 28.0825 35.6224C28.0885 35.6423 28.0924 35.6642 28.0944 35.6841V35.6881C28.0984 35.71 28.0984 35.7319 28.1004 35.7539V35.7578C28.1004 35.7957 28.0984 35.8316 28.0924 35.8694C28.0924 35.8734 28.0905 35.8774 28.0905 35.8814C28.0924 35.8973 28.0887 35.9131 28.0868 35.927ZM31.4129 7.30669C27.9363 3.8103 23.3151 1.88373 18.4012 1.88373C15.6611 1.88373 12.9663 2.49733 10.5152 3.67077L11.5645 0.861723C11.6873 0.533005 11.5229 0.164435 11.1943 0.0409099C10.8676 -0.0826099 10.5013 0.0827465 10.3786 0.413458L8.74119 4.79436C8.73921 4.79834 8.73921 4.80233 8.73723 4.80631C8.73525 4.81029 8.73526 4.81229 8.73327 4.81627C8.7313 4.82026 8.72932 4.82424 8.72932 4.82822C8.72733 4.83619 8.72536 4.84416 8.7214 4.85412C8.71942 4.8601 8.71744 4.86807 8.71546 4.87405C8.7115 4.88799 8.70952 4.90393 8.70556 4.91788C8.70556 4.92186 8.70358 4.92584 8.70358 4.92983C8.69764 4.96768 8.69566 5.00553 8.69566 5.04339V5.04737C8.69566 5.06929 8.69764 5.0912 8.7016 5.11312C8.7016 5.11511 8.70358 5.11909 8.70358 5.12109C8.70556 5.14101 8.70952 5.15894 8.71546 5.17886C8.71744 5.18484 8.71942 5.19281 8.7214 5.19878C8.72536 5.21273 8.72932 5.22867 8.73526 5.24261C8.73724 5.25058 8.74119 5.25855 8.74515 5.26652C8.75109 5.27847 8.75505 5.29242 8.76099 5.30437C8.76297 5.30836 8.76297 5.31035 8.76495 5.31433C8.76693 5.32031 8.77089 5.32429 8.77485 5.33027C8.77881 5.33625 8.78079 5.34422 8.78475 5.35019C8.78673 5.35418 8.79069 5.35816 8.79267 5.36215C8.79861 5.37012 8.80455 5.38008 8.81049 5.38805C8.81841 5.39801 8.82435 5.40797 8.83227 5.41793C8.83821 5.4259 8.84415 5.43387 8.85009 5.43984C8.85801 5.44981 8.86791 5.45977 8.87781 5.46973C8.88375 5.4757 8.88968 5.48168 8.89562 5.48766C8.9075 5.49762 8.9174 5.50758 8.92928 5.51754C8.93324 5.52153 8.9372 5.52551 8.94116 5.5275C8.94314 5.5275 8.94314 5.52949 8.94512 5.52949C8.97086 5.54942 8.9966 5.56535 9.02431 5.58129C9.03025 5.58328 9.03421 5.58727 9.04015 5.58926C9.06787 5.60321 9.09757 5.61715 9.12727 5.62711C9.12925 5.62711 9.13123 5.6291 9.13321 5.6291C9.14509 5.63309 9.15697 5.63707 9.16885 5.63907L13.6552 6.87426C13.7107 6.8902 13.7681 6.89618 13.8235 6.89618C14.1027 6.89618 14.3561 6.7109 14.4333 6.428C14.5264 6.08932 14.3264 5.73867 13.9898 5.64503L11.0279 4.8282C13.3206 3.73448 15.839 3.15674 18.401 3.15674C27.8491 3.15674 35.5349 10.8926 35.5349 20.3997C35.5349 23.5036 34.7054 26.5479 33.1373 29.2015C32.9591 29.5043 33.0581 29.8948 33.357 30.0741C33.458 30.1358 33.5709 30.1637 33.6798 30.1637C33.8956 30.1637 34.1054 30.0522 34.2242 29.8529C35.9091 27.0021 36.8 23.7348 36.8 20.3999C36.802 15.4552 34.8877 10.8054 31.4129 7.30669ZM31.5971 20.4018C31.5971 27.723 25.6771 33.6799 18.4013 33.6799C18.0509 33.6799 17.7678 33.395 17.7678 33.0424C17.7678 32.6898 18.0509 32.4049 18.4013 32.4049C24.9802 32.4049 30.332 27.0197 30.332 20.3997C30.332 13.7798 24.9802 8.39251 18.4013 8.39251C11.8225 8.3945 6.4707 13.7792 6.4707 20.4018C6.4707 22.5295 7.04091 24.6353 8.12191 26.4903C9.65628 29.126 12.2776 30.658 15.313 30.6959L15.412 30.6979C16.7108 30.6959 17.768 29.632 17.768 28.3232V25.8089C14.9032 25.4902 12.6682 23.0417 12.6682 20.0754V15.5909C12.6682 15.2382 12.9513 14.9534 13.3017 14.9534H14.8618V11.8674C14.8618 11.5147 15.145 11.2299 15.4954 11.2299C15.8458 11.2299 16.129 11.5147 16.129 11.8674V14.9534H20.6767V11.8674C20.6767 11.5147 20.9598 11.2299 21.3103 11.2299C21.6607 11.2299 21.9438 11.5147 21.9438 11.8674V14.9534H23.504C23.8544 14.9534 24.1375 15.2382 24.1375 15.5909V20.0754C24.1375 23.0418 21.9022 25.4902 19.0376 25.8089V28.3232C19.0376 30.3353 17.4122 31.9709 15.4125 31.9709H15.3987L15.2957 31.9689C11.8112 31.9251 8.79796 30.1639 7.03363 27.1338C5.83976 25.0838 5.20818 22.7548 5.20818 20.4001C5.20818 13.0768 11.1281 7.11987 18.4039 7.11987C25.6781 7.11987 31.5976 13.0788 31.5976 20.4021L31.5971 20.4018ZM18.4013 24.5715C20.8643 24.5715 22.8699 22.5554 22.8699 20.077V16.228H13.9327V20.075C13.9327 22.5554 15.9384 24.5715 18.4013 24.5715Z" fill="#C29E66"/>
</svg>
