<svg width="36" height="36" viewBox="0 0 36 36" fill="none" xmlns="http://www.w3.org/2000/svg">
<path d="M32.8986 15.8298C32.5184 12.0669 29.5407 9.5578 27.9737 8.90434L29.9087 6.96935C30.4704 6.40607 29.6154 5.51228 29.0304 6.0911L27.097 8.02454C26.4438 6.46196 23.9332 3.47656 20.1733 3.10236C19.205 2.46614 12.4785 -1.64583 4.14902 0.734461C1.97823 0.5886 0.477735 1.2434 0.361347 1.2962C-0.0389822 1.46843 -0.130544 2.04721 0.20773 2.3281C1.3715 3.35067 1.49253 6.75651 1.44133 7.98239C1.44288 8.16859 1.51115 8.35945 1.66167 8.48049C6.04511 10.3798 7.86204 17.6805 7.89024 17.8235C7.94765 17.9942 8.06093 18.1385 8.22696 18.2161C10.21 19.0944 11.9463 20.2566 13.4529 21.6687L4.97761 30.1441C4.1878 30.9991 2.66871 30.3536 2.69664 29.2069C2.69974 28.9493 2.76956 28.5738 3.08921 28.2557L4.03263 27.3123C4.2747 27.0702 4.2747 26.6776 4.03263 26.434C3.79057 26.1919 3.39798 26.1919 3.1544 26.434L2.21097 27.3775C0.591029 28.9416 1.78117 31.8218 4.03263 31.7733C4.69212 31.7733 5.35156 31.5219 5.85429 31.0207L14.3264 22.5484C15.9231 24.1824 16.8277 25.9669 17.9791 28.012C18.0489 28.0679 18.1296 28.1005 18.2118 28.1269C18.2848 28.1439 25.4629 29.8617 27.4272 34.1939C27.542 34.4065 27.7732 34.5678 28.0184 34.5585C29.2489 34.5042 32.6517 34.6284 33.6726 35.7922C33.9503 36.1273 34.5368 36.0435 34.7044 35.6385C34.7572 35.5222 35.412 34.0217 35.2662 31.8508C37.6449 23.5211 33.5345 16.7963 32.8983 15.8262L32.8986 15.8298ZM34.6023 28.9402C34.1198 27.7159 33.3315 26.4063 32.0917 25.0873C32.3772 24.2013 33.0522 21.807 33.105 18.9147C34.0732 21.1678 35.1377 24.7661 34.6023 28.9402ZM31.5502 15.3257C32.222 18.5362 31.6728 21.753 31.2274 23.5577C30.1723 21.7515 27.7548 18.3872 22.6465 14.0303C23.233 13.1039 24.7785 10.8897 26.8019 9.74767C27.4272 9.97267 30.7137 11.332 31.5484 15.3261L31.5502 15.3257ZM26.0648 8.74505C24.0197 9.94606 22.4835 12.0036 21.7604 13.1083C17.5057 8.17064 14.221 5.81224 12.4442 4.77425C17.0759 3.62445 23.7744 3.49717 26.0648 8.74505ZM17.0775 2.8981C14.1898 2.95241 11.8003 3.62584 10.9156 3.91137C9.59672 2.6731 8.28864 1.88482 7.06592 1.40226C11.2277 0.871588 14.8226 1.93138 17.0789 2.8981H17.0775ZM4.05587 1.97639C5.91943 2.03846 8.22361 3.03467 10.5482 5.20085C10.5684 5.20861 11.4901 5.56395 13.0992 6.67965C10.7003 6.59896 6.58063 6.59896 2.69055 7.26466C2.67969 6.02794 2.53227 3.66469 1.65401 2.17644C2.21574 2.03678 3.04897 1.90799 4.05758 1.97626L4.05587 1.97639ZM3.79984 8.34769C8.67227 7.65252 13.791 7.93961 14.8603 8.01097C15.9325 8.88302 17.1739 9.99871 18.5657 11.4371L8.87092 16.7284C8.35111 14.9548 6.82268 10.6489 3.79984 8.34769ZM9.81868 17.6252L19.4467 12.3709C19.9464 12.9125 20.4662 13.5037 20.9969 14.1244L14.3293 20.792C13.0027 19.5429 11.4959 18.4864 9.81868 17.6252ZM21.8754 15.0028C22.4976 15.535 23.0888 16.0548 23.6319 16.5561L18.3734 26.1923C17.4967 24.5024 16.4384 22.9942 15.2064 21.6737L21.8771 15.0029L21.8754 15.0028ZM19.2732 27.1324L24.5643 17.4375C26.0028 18.8293 27.1184 20.0707 27.9905 21.1429C28.0634 22.2105 28.3504 27.3279 27.6537 32.2036C25.3526 29.1809 21.0469 27.654 19.2732 27.1324ZM33.825 34.3495C32.3323 33.4681 29.9706 33.3238 28.7357 33.3129C29.4013 29.4228 29.4029 25.303 29.3222 22.9025C30.5977 24.7506 30.6675 25.2797 30.9034 25.618C33.788 28.7229 34.441 31.305 33.825 34.3495Z" fill="#C29E66"/>
</svg>
