<svg preserveAspectRatio="none" width="100%" height="100%" overflow="visible" style="display: block;" viewBox="0 0 90.9724 67.2456" fill="none" xmlns="http://www.w3.org/2000/svg">
<g id="Group 24">
<path id="Vector" d="M89.5509 64.3924H85.0592L76.63 55.9326L85.2582 47.2873H89.5509C90.3327 47.2873 90.9724 46.6453 90.9724 45.8607V38.7276C90.9724 37.943 90.3327 37.301 89.5509 37.301H79.6008V34.2481C82.0457 33.6061 83.8652 31.3948 83.8652 28.7413V21.6083C83.8652 20.8236 83.2255 20.1817 82.4437 20.1817H73.9151C73.1333 20.1817 72.4936 20.8236 72.4936 21.6083V28.7413C72.4936 31.3948 74.3131 33.6061 76.7579 34.2481V37.301H65.3864V35.4036C67.945 34.3479 69.6934 31.8086 69.6934 28.9696V28.1136C69.6934 24.3902 66.7368 21.2659 63.0979 21.166C62.9131 21.166 62.7283 21.1803 62.5293 21.1803V5.20224C62.5293 3.59016 61.8044 2.12075 60.5251 1.13639C59.2458 0.152028 57.6111 -0.161826 56.0475 0.266157C42.359 4.00388 28.0451 3.97535 13.4895 0.166295C11.9401 -0.233156 10.3197 0.0949645 9.05459 1.06506C7.80372 2.03516 7.07879 3.51883 7.07879 5.11664V21.1803C6.92243 21.1803 6.75186 21.166 6.5955 21.166C2.9566 21.2802 0 24.3902 0 28.1136V28.9696C0 31.8086 1.76259 34.3479 4.30697 35.4036V52.9082C4.30697 56.0467 6.80871 58.6003 9.92167 58.6717V64.3924H1.50673C0.724936 64.3924 0.0852865 65.0344 0.0852865 65.819C0.0852865 66.6036 0.724936 67.2456 1.50673 67.2456H89.5509C90.3327 67.2456 90.9724 66.6036 90.9724 65.819C90.9724 65.0344 90.3327 64.3924 89.5509 64.3924ZM75.3365 28.7413V23.0349H81.0223V28.7413C81.0223 30.3106 79.743 31.5946 78.1794 31.5946C76.6158 31.5946 75.3365 30.3106 75.3365 28.7413ZM81.0507 64.3924H68.2151L74.64 57.9441L81.0507 64.3924ZM59.7575 64.3924V58.6717C62.8704 58.6003 65.3864 56.0467 65.3864 52.9082V48.6854L72.6215 55.9468L64.1924 64.4066H59.7575V64.3924ZM74.6258 53.921L68.0161 47.2873H81.2355L74.6258 53.921ZM88.1295 44.4341H61.1221V40.1542H88.1295V44.4341ZM66.8505 28.1136V28.9696C66.8505 30.867 65.5001 32.5504 63.6522 32.9641C62.9984 33.1068 62.5435 33.6917 62.5435 34.3622V37.301H59.7006C58.9188 37.301 58.2792 37.943 58.2792 38.7276V45.8607C58.2792 46.6453 58.9188 47.2873 59.7006 47.2873H62.5435V52.9082C62.5435 54.5202 61.2358 55.8327 59.6295 55.8327H58.336H54.6829V42.9932V32.1367C54.6829 31.0524 54.8961 29.9968 55.2941 29.0124C55.3084 28.9839 55.3226 28.9696 55.3226 28.9411C55.7206 27.9995 56.2892 27.1293 57.0283 26.3874C58.6345 24.7896 60.7383 23.9337 63.0126 24.0193C65.1305 24.0763 66.8505 25.9166 66.8505 28.1136ZM48.7271 58.6859L50.8877 64.3924H18.8341L20.9947 58.6859H48.7271ZM17.896 55.8327V44.4198H51.84V55.8327H17.896ZM52.5934 28.1136C52.0959 29.3833 51.84 30.7243 51.84 32.1224V41.5666H49.6084C48.9403 38.3139 46.069 35.8601 42.6433 35.8601H27.0074C23.5817 35.8601 20.7104 38.3139 20.0424 41.5666H17.896V32.1224C17.896 30.653 17.6117 29.2264 17.0573 27.8996V11.2083C29.1254 13.5907 41.0086 13.6335 52.5934 11.3224V28.1136ZM22.9847 41.5666C23.5675 39.9117 25.1453 38.7134 27.0074 38.7134H42.6433C44.4912 38.7134 46.069 39.8974 46.666 41.5666H22.9847ZM9.9501 5.11664C9.9501 4.40333 10.2628 3.76136 10.8314 3.33337C11.4 2.89112 12.1107 2.74846 12.8072 2.93392C27.8461 6.87137 42.6433 6.8999 56.8293 3.01952C57.5258 2.83406 58.265 2.97672 58.8335 3.4047C59.3879 3.83269 59.7148 4.48893 59.7148 5.20224V21.6083C58.1512 22.0648 56.7014 22.8922 55.4505 24.0193V9.58193C55.4505 9.15395 55.2515 8.74023 54.9246 8.46918C54.5834 8.19812 54.157 8.09826 53.7306 8.18386C41.4635 10.8802 28.7984 10.8374 15.9486 8.06973C15.5222 7.98413 15.0957 8.08399 14.7546 8.35505C14.4277 8.62611 14.2286 9.03982 14.2286 9.46781V23.9479C12.9778 22.8352 11.5279 22.022 9.96432 21.5797V5.11664H9.9501ZM7.17829 52.9082V34.3622C7.17829 33.6917 6.70921 33.121 6.06956 32.9641C4.20747 32.5504 2.87132 30.867 2.87132 28.9696V28.1136C2.87132 25.9166 4.59126 24.0763 6.70921 24.0193C6.7945 24.0193 6.87979 24.0193 6.96507 24.0193C9.12567 24.0193 11.1441 24.861 12.6793 26.3874C14.2144 27.9282 15.0531 29.9682 15.0531 32.1367V55.847H10.1065C8.48602 55.8327 7.17829 54.5202 7.17829 52.9082ZM12.793 64.3924V58.6859H16.4603H17.9386L15.778 64.3924H12.793ZM53.9153 64.3924L51.7548 58.6859H53.2473H56.9004V64.3924H53.9153Z" fill="var(--fill-0, #C29E66)"/>
<path id="Vector_2" d="M24.1652 17.257C23.3831 17.257 22.6722 17.9705 22.6722 18.7554C22.6722 19.5402 23.3831 20.2538 24.1652 20.2538C24.9472 20.2538 25.6581 19.5402 25.6581 18.7554C25.6581 17.9705 24.9472 17.257 24.1652 17.257Z" fill="var(--fill-0, #C29E66)"/>
<path id="Vector_3" d="M31.2723 17.257C30.4902 17.257 29.7793 17.9705 29.7793 18.7554C29.7793 19.5402 30.4902 20.2538 31.2723 20.2538C32.0543 20.2538 32.7652 19.5402 32.7652 18.7554C32.7652 17.9705 32.0543 17.257 31.2723 17.257Z" fill="var(--fill-0, #C29E66)"/>
<path id="Vector_4" d="M38.3937 20.2538C39.1758 20.2538 39.8867 19.5402 39.8867 18.7554C39.8867 17.9705 39.1758 17.257 38.3937 17.257C37.6117 17.257 36.9008 17.9705 36.9008 18.7554C36.9008 19.5402 37.5975 20.2538 38.3937 20.2538Z" fill="var(--fill-0, #C29E66)"/>
<path id="Vector_5" d="M45.501 20.2538C46.283 20.2538 46.9939 19.5402 46.9939 18.7554C46.9939 17.9705 46.283 17.257 45.501 17.257C44.7189 17.257 44.008 17.9705 44.008 18.7554C44.008 19.5402 44.7189 20.2538 45.501 20.2538Z" fill="var(--fill-0, #C29E66)"/>
<path id="Vector_6" d="M24.1652 25.8027C23.3831 25.8027 22.6722 26.5162 22.6722 27.3011C22.6722 28.086 23.3831 28.7995 24.1652 28.7995C24.9472 28.7995 25.6581 28.086 25.6581 27.3011C25.6581 26.5162 24.9472 25.8027 24.1652 25.8027Z" fill="var(--fill-0, #C29E66)"/>
<path id="Vector_7" d="M31.2723 25.8027C30.4902 25.8027 29.7793 26.5162 29.7793 27.3011C29.7793 28.086 30.4902 28.7995 31.2723 28.7995C32.0543 28.7995 32.7652 28.086 32.7652 27.3011C32.7652 26.5162 32.0543 25.8027 31.2723 25.8027Z" fill="var(--fill-0, #C29E66)"/>
<path id="Vector_8" d="M38.3937 28.7995C39.1758 28.7995 39.8867 28.086 39.8867 27.3011C39.8867 26.5162 39.1758 25.8027 38.3937 25.8027C37.6117 25.8027 36.9008 26.5162 36.9008 27.3011C36.9008 28.086 37.5975 28.7995 38.3937 28.7995Z" fill="var(--fill-0, #C29E66)"/>
<path id="Vector_9" d="M45.501 28.7995C46.283 28.7995 46.9939 28.086 46.9939 27.3011C46.9939 26.5162 46.283 25.8027 45.501 25.8027C44.7189 25.8027 44.008 26.5162 44.008 27.3011C44.008 28.086 44.7189 28.7995 45.501 28.7995Z" fill="var(--fill-0, #C29E66)"/>
</g>
</svg>
