<svg preserveAspectRatio="none" width="100%" height="100%" overflow="visible" style="display: block;" viewBox="0 0 69 69" fill="none" xmlns="http://www.w3.org/2000/svg">
<g id="star-icon 1">
<path id="Vector" d="M31.6739 8.09025C31.7971 7.43073 32.147 6.83507 32.6632 6.40642C33.1793 5.97776 33.8291 5.74312 34.5 5.74312C35.1709 5.74312 35.8207 5.97776 36.3368 6.40642C36.853 6.83507 37.2029 7.43073 37.3261 8.09025L40.3478 24.0695C40.5624 25.2056 41.1144 26.2505 41.932 27.068C42.7495 27.8856 43.7945 28.4376 44.9305 28.6522L60.9098 31.6739C61.5693 31.7971 62.1649 32.147 62.5936 32.6632C63.0222 33.1793 63.2569 33.8291 63.2569 34.5C63.2569 35.1709 63.0222 35.8207 62.5936 36.3368C62.1649 36.853 61.5693 37.2029 60.9098 37.3261L44.9305 40.3478C43.7945 40.5624 42.7495 41.1144 41.932 41.932C41.1144 42.7495 40.5624 43.7945 40.3478 44.9305L37.3261 60.9098C37.2029 61.5693 36.853 62.1649 36.3368 62.5936C35.8207 63.0222 35.1709 63.2569 34.5 63.2569C33.8291 63.2569 33.1793 63.0222 32.6632 62.5936C32.147 62.1649 31.7971 61.5693 31.6739 60.9098L28.6522 44.9305C28.4376 43.7945 27.8856 42.7495 27.068 41.932C26.2505 41.1144 25.2056 40.5624 24.0695 40.3478L8.09025 37.3261C7.43073 37.2029 6.83507 36.853 6.40642 36.3368C5.97776 35.8207 5.74312 35.1709 5.74312 34.5C5.74312 33.8291 5.97776 33.1793 6.40642 32.6632C6.83507 32.147 7.43073 31.7971 8.09025 31.6739L24.0695 28.6522C25.2056 28.4376 26.2505 27.8856 27.068 27.068C27.8856 26.2505 28.4376 25.2056 28.6522 24.0695L31.6739 8.09025Z" stroke="var(--stroke-0, #C29E66)" stroke-width="3" stroke-linecap="round" stroke-linejoin="round"/>
<path id="Vector_2" d="M57.5 5.75V17.25" stroke="var(--stroke-0, #C29E66)" stroke-width="3" stroke-linecap="round" stroke-linejoin="round"/>
<path id="Vector_3" d="M63.25 11.5H51.75" stroke="var(--stroke-0, #C29E66)" stroke-width="3" stroke-linecap="round" stroke-linejoin="round"/>
<path id="Vector_4" d="M11.5 63.25C14.6756 63.25 17.25 60.6756 17.25 57.5C17.25 54.3244 14.6756 51.75 11.5 51.75C8.32436 51.75 5.75 54.3244 5.75 57.5C5.75 60.6756 8.32436 63.25 11.5 63.25Z" stroke="var(--stroke-0, #C29E66)" stroke-width="3" stroke-linecap="round" stroke-linejoin="round"/>
</g>
</svg>
