<svg preserveAspectRatio="none" width="100%" height="100%" overflow="visible" style="display: block;" viewBox="0 0 58.0444 66.775" fill="none" xmlns="http://www.w3.org/2000/svg">
<g id="Group">
<path id="Vector" d="M39.3444 27.175C40.0444 27.875 40.0444 28.975 39.3444 29.675L26.6445 42.375C26.3445 42.675 25.8444 42.875 25.4444 42.875C25.3444 42.875 25.2445 42.875 25.1445 42.875C24.8445 42.775 24.5444 42.675 24.2444 42.375L18.8444 36.975C18.1444 36.275 18.1444 35.175 18.8444 34.475C19.5444 33.775 20.6444 33.775 21.3444 34.475L25.4444 38.575L36.8444 27.175C37.5444 26.475 38.6444 26.475 39.3444 27.175ZM58.0444 24.875V25.275V25.375L57.9444 34.475C57.9444 34.475 57.9444 34.475 57.9444 34.575C57.9444 35.675 57.9444 36.575 57.8444 37.575C57.6444 42.075 56.0444 46.375 52.8444 50.675C49.2444 55.575 44.3444 59.575 37.8444 63.075C35.8444 64.075 33.8444 64.975 31.8444 65.875C31.3444 66.075 30.8444 66.275 30.4444 66.475C29.9444 66.675 29.4444 66.775 28.9444 66.775C28.5444 66.775 28.1444 66.675 27.7444 66.575C19.6444 63.575 13.3444 59.575 8.24444 54.475C4.24444 50.475 1.84444 46.175 0.744441 41.575C0.244441 39.575 0.0444444 37.575 0.0444444 35.675C-0.0555556 30.175 0.0444444 24.675 0.0444444 19.275C0.0444444 17.375 0.0444444 15.375 0.0444444 13.475C0.0444444 11.175 1.04445 10.075 3.34445 9.975C11.1444 9.475 18.5444 6.575 26.7444 0.975C28.6444 -0.325 29.4444 -0.325 31.4444 0.975C37.6444 5.275 43.1444 7.87501 48.9444 9.17501C50.4444 9.47501 51.9444 9.67501 53.5444 9.87501C54.0444 9.97501 54.6445 9.97501 55.1445 10.075C57.5445 10.375 58.0444 11.975 58.0444 13.275C58.0444 16.275 58.0444 19.375 58.0444 22.375V24.875ZM54.5444 21.675C54.5444 18.775 54.5444 15.975 54.5444 13.075C54.0444 12.975 53.6445 12.975 53.1445 12.875C51.5445 12.675 49.8445 12.475 48.1445 12.075C41.9445 10.675 35.8444 7.87501 29.3444 3.37501C29.2444 3.27501 29.1444 3.17501 29.0444 3.17501C28.9444 3.27501 28.8444 3.37501 28.7444 3.37501C19.9444 9.37501 11.9444 12.475 3.54444 13.075C3.54444 14.975 3.54444 16.975 3.54444 18.875C3.54444 24.275 3.54444 29.775 3.54444 35.275C3.54444 36.975 3.74445 38.675 4.14445 40.475C5.04445 44.475 7.24444 48.175 10.7444 51.775C15.4444 56.575 21.4444 60.275 28.9444 63.075H29.0444C29.5444 62.875 30.0444 62.675 30.4444 62.475C32.3444 61.675 34.3445 60.775 36.1445 59.875C42.1445 56.675 46.6444 52.975 49.9444 48.575C52.6444 44.875 54.0444 41.175 54.2444 37.375C54.2444 36.475 54.3444 35.575 54.3444 34.475V34.175L54.4444 25.275V25.175V24.875V21.675H54.5444Z" fill="var(--fill-0, #C29E66)"/>
</g>
</svg>
