<svg preserveAspectRatio="none" width="100%" height="100%" overflow="visible" style="display: block;" viewBox="0 0 137.142 124.444" fill="none" xmlns="http://www.w3.org/2000/svg">
<g id="Layer_1" clip-path="url(#clip0_2148_592)">
<g id="Group">
<path id="Vector" d="M125.751 109.079C113.645 109.179 100.665 106.337 93.0314 96.1998C90.4075 92.7016 88.4991 88.8854 87.4058 84.6518L83.9271 71.2753C82.794 66.8827 81.5814 61.8739 78.699 58.336C76.8304 56.09 74.3257 54.7782 71.3638 54.7782H60.9077V95.9016C62.0607 96.2793 51.6046 96.319 51.6046 96.319L54.2485 96.16C54.5466 96.16 54.9641 95.7625 54.9641 95.365V24.4276C54.9641 24.1294 54.6261 23.6922 54.4075 23.6723L51.5847 23.4735L51.6444 21.0884H71.7217C81.0049 21.1083 93.1507 24.4673 94.4825 35.3196C94.8404 38.2215 94.7012 41.0837 93.5483 43.8067C91.5207 48.5968 86.9486 52.9099 81.8398 53.9037C85.1396 54.6987 87.207 60.582 88.0618 63.464C89.2147 67.3796 90.0894 71.2156 91.0038 75.1908C91.7393 78.4704 92.4947 81.5909 93.5681 84.7512C98.6968 99.7774 110.206 106.337 125.831 106.237L125.771 109.06L125.751 109.079ZM87.9425 33.4115C86.9486 29.4761 84.1457 26.5344 80.3489 25.2027C77.9834 24.4276 75.6377 23.9108 73.0734 23.9108L60.9276 23.8512V51.9757L72.9144 51.9161C75.5185 51.9161 77.9237 51.4192 80.3489 50.644C87.7835 48.2191 89.6521 40.1694 87.9425 33.3916V33.4115Z" fill="var(--fill-0, #C29E66)"/>
<g id="Group_2">
<path id="Vector_2" d="M72.3578 85.7847V67.1212H52.3997V64.8355H77.1684V85.268C73.133 90.2568 67.7062 93.9538 61.5637 95.9414C55.1827 97.7898 48.3247 97.8097 42.0232 95.5637C33.1574 92.4233 25.9812 85.427 22.7013 76.5822C20.1966 69.8442 20.1966 62.2715 22.6416 55.5335C25.0867 48.7955 29.7184 43.3495 35.6223 39.5333C39.8763 36.7904 44.6074 35.2202 49.6565 34.8028C61.186 33.8488 70.9066 38.9371 78.0033 47.7819H72.2385C70.9464 46.2117 69.6543 44.8402 68.1634 43.5284C58.0452 34.783 43.0171 35.0612 33.5947 44.7408C24.9276 53.6453 24.053 66.5448 28.7046 77.6753C33.4158 88.9649 44.2496 96.0606 56.5941 94.5898C62.7564 93.7351 68.3026 90.6544 72.3776 85.8046L72.3578 85.7847Z" fill="var(--fill-0, #C29E66)"/>
<path id="Vector_3" d="M45.6609 69.9038C44.0905 67.1609 44.5875 67.6777 41.9437 65.9684C44.6074 64.2988 44.1303 64.7361 45.6609 62.0528C47.2512 64.7361 46.6549 64.2392 49.3782 65.9684C46.7741 67.6976 47.291 67.0417 45.6609 69.9038Z" fill="var(--fill-0, #C29E66)"/>
</g>
<path id="Vector_4" d="M133.425 111.087C131.854 108.344 132.351 108.861 129.707 107.151C132.371 105.482 131.894 105.919 133.425 103.236C135.015 105.919 134.418 105.422 137.142 107.151C134.538 108.881 135.055 108.225 133.425 111.087Z" fill="var(--fill-0, #C29E66)"/>
</g>
<path id="Vector_5" d="M62.2396 124.444C27.9094 124.444 0 96.5376 0 62.2317C0 27.9258 27.9094 0 62.2396 0C96.5698 0 124.479 27.9059 124.479 62.2317C124.479 96.5575 96.5698 124.463 62.2396 124.463V124.444ZM62.2396 3.9752C30.1159 3.9752 3.9757 30.1121 3.9757 62.2317C3.9757 94.3513 30.1159 120.488 62.2396 120.488C94.3633 120.488 120.504 94.3513 120.504 62.2317C120.504 30.1121 94.3633 3.9752 62.2396 3.9752Z" fill="var(--fill-0, #C29E66)"/>
</g>
<defs>
<clipPath id="clip0_2148_592">
<rect width="137.142" height="124.444" fill="white"/>
</clipPath>
</defs>
</svg>
