<svg preserveAspectRatio="none" width="100%" height="100%" overflow="visible" style="display: block;" viewBox="0 0 44 44" fill="none" xmlns="http://www.w3.org/2000/svg">
<path id="Vector" d="M41.2423 26.6858H36.1211V24.5166C36.1191 22.8647 34.7888 21.5266 33.1491 21.5266H27.4156C25.7759 21.5266 24.4456 22.8647 24.4415 24.5166V26.6858H19.3471C17.8312 26.6858 16.602 27.9242 16.602 29.4534V39.4205C16.602 40.9477 17.8312 42.186 19.3471 42.186H20.6609C20.6733 43.1398 21.4426 43.9044 22.3893 43.9044H23.7815C24.7282 43.9086 25.4995 43.1398 25.5098 42.186H35.055C35.0343 42.6598 35.2035 43.1211 35.5293 43.4618C35.8531 43.8046 36.3007 43.9999 36.771 43.9999H38.1961C39.149 44.0082 39.9266 43.2415 39.939 42.2816H41.2528C42.7687 42.2795 43.9959 41.0432 44 39.516V29.4468C43.9938 27.9176 42.7603 26.6837 41.2423 26.6858ZM42.9542 29.4472V30.7292C41.4114 30.4944 40.2008 29.2727 39.9698 27.7185H41.2424C42.1891 27.7205 42.9542 28.4935 42.9542 29.4472ZM25.4764 24.5104C25.4764 23.432 26.3447 22.5593 27.4151 22.5593H33.1487C34.2191 22.5593 35.0854 23.432 35.0854 24.5104V26.6796L34.3305 26.6817V24.5166C34.3326 24.1987 34.2088 23.8953 33.9861 23.6709C33.7654 23.4465 33.4622 23.3198 33.1487 23.3198H27.4152C27.0975 23.3156 26.7902 23.4403 26.5634 23.6647C26.3385 23.8891 26.2107 24.1966 26.2107 24.5166V26.6858H25.4764L25.4764 24.5104ZM27.2666 26.6858V24.5166C27.2666 24.4314 27.3347 24.3628 27.4192 24.3628H33.1491C33.2336 24.3628 33.3017 24.4314 33.3017 24.5166V26.6858H27.2666ZM19.3466 27.7247H20.6192C20.3882 29.2789 19.1755 30.5007 17.6307 30.7355V29.4472C17.6368 28.4955 18.402 27.7268 19.3466 27.7247ZM23.781 42.9631H22.362C21.9866 42.961 21.6813 42.6597 21.669 42.2816H24.474C24.4657 42.6597 24.1584 42.9631 23.781 42.9631ZM38.2001 42.9631H36.7708C36.3954 42.961 36.0901 42.6597 36.0799 42.2816H38.8828C38.8725 42.6556 38.5713 42.9548 38.2021 42.9631H38.2001ZM41.2422 41.2447H19.3467C18.4 41.2426 17.6328 40.4697 17.6307 39.516V31.7824C19.7468 31.5393 21.4175 29.8563 21.6587 27.7245H38.9301C39.1714 29.8542 40.8379 31.5352 42.954 31.7824V39.516C42.954 40.4697 42.1889 41.2426 41.2422 41.2447ZM12.9632 37.8143H3.6282C2.92902 37.8205 2.25662 37.54 1.76579 37.0393C1.27492 36.5385 1.00473 35.859 1.01915 35.1547V13.2296C1.02121 12.5335 1.29758 11.8665 1.78638 11.3761C2.27519 10.8858 2.93726 10.6094 3.6282 10.6115H19.1878C19.8787 10.6094 20.5408 10.8858 21.0296 11.3761C21.5205 11.8665 21.7948 12.5335 21.7968 13.2296V23.0637C21.7968 23.3566 22.0319 23.5956 22.3248 23.5956C22.6156 23.5956 22.8528 23.3566 22.8528 23.0637V13.2296C22.8466 11.2058 21.2172 9.57055 19.2084 9.5747H15.5124V3.10019H16.0404C16.4323 3.10435 16.8097 2.95059 17.0882 2.67009C17.3646 2.39166 17.5192 2.01142 17.5151 1.61663V1.48365C17.5192 1.08886 17.3646 0.708645 17.0882 0.430186C16.8098 0.149685 16.4323 -0.00407735 16.0404 8.22431e-05H6.81261C5.99791 8.22431e-05 5.33585 0.662905 5.33379 1.48365V1.61663C5.33585 2.43738 5.99791 3.10021 6.81261 3.10021H7.3406V9.57471H3.64462C1.63574 9.57055 0.00639581 11.2058 0.000218237 13.2296V35.1754C-0.0183441 36.8854 1.14904 38.3773 2.80521 38.7555C2.53708 39.1274 2.39271 39.5763 2.39271 40.0375C2.39065 40.7377 2.71652 41.3964 3.27135 41.8182C3.82617 42.2379 4.54599 42.373 5.21217 42.1777C5.8804 41.9845 6.41663 41.4837 6.66416 40.8292C6.90959 40.1747 6.83535 39.4412 6.4641 38.8511H12.9632C13.254 38.8511 13.4912 38.6121 13.4912 38.3192C13.4912 38.0262 13.254 37.7872 12.9632 37.7872L12.9632 37.8143ZM6.36956 1.61673V1.48375C6.3675 1.36531 6.41288 1.25104 6.49744 1.16584C6.57994 1.08273 6.69337 1.03494 6.813 1.03702H15.9991C16.1167 1.03494 16.2301 1.08273 16.3147 1.16584C16.3972 1.25104 16.4446 1.36531 16.4426 1.48375V1.61673C16.4446 1.73517 16.3972 1.84944 16.3147 1.93464C16.2301 2.01775 16.1167 2.06554 15.9991 2.06346H6.813C6.69338 2.06554 6.57994 2.01775 6.49744 1.93464C6.41287 1.84944 6.3675 1.73517 6.36956 1.61673ZM8.3702 3.1003H14.4358V9.5748H8.3702V3.1003ZM4.56286 41.2239C4.08643 41.2239 3.65745 40.9351 3.47592 40.4904C3.29236 40.0479 3.39342 39.5388 3.72961 39.1981C4.06786 38.8594 4.57319 38.7576 5.01249 38.9425C5.45386 39.1253 5.74054 39.5575 5.74054 40.0375C5.74054 40.3512 5.61679 40.6546 5.39611 40.8769C5.17543 41.0992 4.87428 41.2239 4.56286 41.2239ZM16.5273 23.9946C16.5273 24.1359 16.4716 24.2709 16.3726 24.3706C16.2736 24.4704 16.1395 24.5265 15.9993 24.5265H4.74238C4.41238 24.5265 4.14426 24.7945 4.14014 25.127V25.4989H13.962C14.2528 25.4989 14.49 25.7378 14.49 26.0308C14.49 26.3259 14.2528 26.5627 13.962 26.5627H6.36988V27.7387C6.36988 28.0338 6.13269 28.2707 5.84188 28.2707C5.54901 28.2707 5.31388 28.0338 5.31388 27.7387V26.5316H4.1403V34.0534C4.13618 34.2155 4.19806 34.3713 4.31149 34.4856C4.42699 34.5999 4.58168 34.6601 4.74255 34.6539H12.9635C13.2027 34.71 13.3739 34.924 13.3739 35.1733C13.3739 35.4206 13.2027 35.6367 12.9635 35.6907H4.74255C4.30943 35.697 3.89073 35.5266 3.5855 35.2191C3.27819 34.9095 3.107 34.4897 3.11112 34.0534V26.0374V26.0104V25.1169C3.11319 24.211 3.8433 23.4776 4.74253 23.4734H16.0163C16.2968 23.4817 16.5217 23.7124 16.5278 23.9949L16.5273 23.9946ZM19.1199 16.8243V13.3024H3.6923V16.8243C3.72736 16.9822 3.69023 17.1485 3.58917 17.2752C3.49017 17.4019 3.33755 17.4747 3.17668 17.4747C3.0158 17.4747 2.86318 17.4019 2.76418 17.2752C2.66311 17.1485 2.62599 16.9822 2.66105 16.8243V13.2339C2.65899 12.9762 2.76005 12.729 2.93949 12.5461C3.12099 12.3633 3.36642 12.2635 3.62219 12.2656H19.1876C19.7197 12.2656 20.1487 12.6999 20.1487 13.2338V16.8243C20.1487 17.1193 19.9136 17.3562 19.6207 17.3562C19.3299 17.3562 19.0927 17.1193 19.0927 16.8243L19.1199 16.8243Z" fill="var(--fill-0, #C29E66)"/>
</svg>
