<svg preserveAspectRatio="none" width="100%" height="100%" overflow="visible" style="display: block;" viewBox="0 0 36 44.8" fill="none" xmlns="http://www.w3.org/2000/svg">
<path id="Vector" d="M30.634 34.5951C28.8183 34.7833 26.5562 35.0185 25.7705 34.4747C23.7583 33.0841 17.6681 30.7507 13.93 32.7604C13.8327 28.8087 12.6139 19.7011 10.4663 16.3232C8.54945 13.3068 6.75659 11.3233 6.09098 10.6272C6.39806 8.81886 7.27352 3.29383 6.82148 1.81106C6.40759 0.456186 4.75015 -0.07449 3.38261 0.00831971C1.83006 0.100528 0.693327 0.920961 0.489231 2.09518C0.483509 2.12341 0.481602 2.15164 0.479694 2.17986L0.000962779 11.0938C-0.00285206 11.1653 0.00477703 11.2387 0.0219426 11.3084C0.0219426 11.3084 5.39679 32.2806 6.03545 34.7832C6.09839 35.0315 6.20329 35.2611 6.3368 35.4756C5.97823 36.1907 5.85044 37.0036 5.98967 37.8071L7.10927 44.1997C7.1703 44.546 7.47356 44.8 7.83024 44.8H30.979C32.4591 44.8 33.6645 43.6107 33.6645 42.1505V41.7572H34.0707C34.3587 41.7572 34.6219 41.5897 34.7383 41.33C35.2724 40.1539 36.8936 36.2135 35.3505 34.8965C34.5609 34.2247 33.0427 34.3433 30.63 34.5935L30.634 34.5951ZM1.47128 11.0616L1.94238 2.3056C2.07017 1.73543 2.84265 1.48892 3.47584 1.4513C4.40086 1.39485 5.27632 1.74486 5.4232 2.22848C5.70929 3.16559 5.10658 7.77225 4.58972 10.7455C4.54967 10.977 4.62596 11.2159 4.79571 11.3815C4.81669 11.4022 6.95669 13.5136 9.22825 17.0925C11.5113 20.6847 12.7148 31.7891 12.442 34.0191C12.4287 34.1282 12.3963 34.2336 12.3448 34.3371C12.2761 34.2769 12.2055 34.2223 12.135 34.1677C12.0587 34.1094 11.9805 34.0548 11.8984 34.0021C11.8126 33.9457 11.7268 33.8949 11.6371 33.846C11.5818 33.8159 11.5284 33.7839 11.4712 33.7575C11.3358 33.6917 11.1966 33.6371 11.0554 33.5882C11.0058 33.5712 10.9582 33.5543 10.9086 33.5392C10.7541 33.4922 10.5939 33.4546 10.4336 33.4263C10.3993 33.4207 10.3631 33.4169 10.3287 33.4113C10.1495 33.3849 9.96827 33.368 9.78516 33.368C9.65737 33.368 9.52958 33.3755 9.4037 33.3887C9.36174 33.3925 9.31978 33.4 9.27782 33.4037C9.1939 33.415 9.10998 33.4282 9.02796 33.4451C8.98028 33.4546 8.9326 33.464 8.88492 33.4753C8.80481 33.4941 8.72661 33.5167 8.64841 33.5411C8.60454 33.5543 8.56067 33.5656 8.51871 33.5806C8.41 33.6183 8.30319 33.6597 8.2002 33.7067C8.1487 33.7293 8.09911 33.7556 8.04761 33.782C7.98849 33.8121 7.92936 33.8422 7.87214 33.8742C7.81874 33.9043 7.76725 33.9344 7.71575 33.9664C7.66044 34.0022 7.60513 34.0379 7.55172 34.0774C7.50404 34.1094 7.45826 34.1433 7.41249 34.1772C7.40676 34.1809 7.40104 34.1847 7.39532 34.1903C6.56566 30.9499 1.87008 12.627 1.46922 11.0653L1.47128 11.0616ZM8.45205 43.3564L7.43738 37.5645C7.33057 36.9492 7.47362 36.3263 7.83219 35.8201C7.88177 35.7505 7.93518 35.6828 7.99049 35.6188C8.00384 35.6037 8.0191 35.5906 8.03245 35.5755C8.08204 35.5228 8.13354 35.4701 8.18694 35.4212C8.20411 35.4061 8.22128 35.3911 8.23844 35.376C8.29184 35.3309 8.34716 35.2876 8.40438 35.2481C8.42345 35.2349 8.44443 35.2217 8.4635 35.2086C8.52072 35.1709 8.57984 35.1352 8.63897 35.1032C8.66186 35.0919 8.68284 35.0787 8.70573 35.0693C8.76485 35.0392 8.8278 35.0129 8.88883 34.9865C8.91362 34.9771 8.93651 34.9677 8.96131 34.9583C9.02425 34.9357 9.08719 34.9169 9.15013 34.9C9.17683 34.8924 9.20163 34.8849 9.22833 34.8774C9.29318 34.8623 9.35993 34.851 9.42669 34.8416C9.45148 34.8379 9.47628 34.8322 9.50107 34.8284C9.59262 34.8172 9.68608 34.8115 9.77954 34.8115C9.89397 34.8115 10.0046 34.8228 10.1152 34.8379C10.1572 34.8435 10.1972 34.8529 10.2373 34.8604C10.304 34.8736 10.367 34.8887 10.4318 34.9075C10.4814 34.9225 10.5329 34.9357 10.5806 34.9545C10.6264 34.9715 10.6722 34.9903 10.716 35.0091C10.9411 35.1051 11.1509 35.233 11.3378 35.393C11.3416 35.3967 11.3473 35.4005 11.3511 35.4043C11.4198 35.4645 11.4865 35.5303 11.5495 35.5981C11.5514 35.6 11.5533 35.6019 11.5552 35.6037C11.6182 35.6734 11.6773 35.7486 11.7326 35.8258C11.7345 35.8295 11.7383 35.8314 11.7402 35.8352C11.8108 35.9387 11.8737 36.0478 11.929 36.1626C11.9309 36.1664 11.9309 36.172 11.9329 36.1758L11.9557 36.2247C11.9844 36.2831 12.013 36.3414 12.0339 36.4035L14.4333 43.3549H8.4423L8.45205 43.3564ZM32.2038 42.1521C32.2038 42.8163 31.6564 43.3564 30.9832 43.3564H15.988L15.4368 41.7588H32.2039L32.2038 42.1521ZM33.5924 40.3136H14.9391L13.4285 35.9385C13.4285 35.9385 13.4285 35.9366 13.4266 35.9366C13.4132 35.8952 13.396 35.8557 13.3808 35.8143C13.6154 35.0352 13.9492 34.4613 14.3096 34.2186C17.3098 32.2088 23.1976 34.4632 24.9294 35.6581C26.1653 36.5124 28.5152 36.2678 30.7867 36.0307C32.0036 35.9046 34.0387 35.6939 34.3972 35.9893C34.7977 36.3318 34.4086 38.3585 33.5923 40.3117L33.5924 40.3136Z" fill="var(--fill-0, #C29E66)"/>
</svg>
