<svg preserveAspectRatio="none" width="100%" height="100%" overflow="visible" style="display: block;" viewBox="0 0 54 54" fill="none" xmlns="http://www.w3.org/2000/svg">
<path id="Vector" d="M44.8619 22.1235H36.7781C36.1336 22.1235 35.6109 22.6463 35.6109 23.291V26.3058C35.6109 26.9411 36.1336 27.4592 36.7781 27.4592H44.8619C45.5064 27.4592 46.0291 26.9411 46.0291 26.3058V23.291C46.0291 22.6486 45.5064 22.1235 44.8619 22.1235ZM44.3252 25.7572H37.3124V23.8279H44.3252V25.7572ZM38.0582 29.6746H39.7597V32.6262H38.0582V29.6746ZM41.8902 29.6746H43.5917V32.6262H41.8902V29.6746ZM38.0582 35.1487H39.7597V38.1002H38.0582V35.1487ZM41.8902 35.1487H43.5917V38.1002H41.8902V35.1487ZM38.0582 40.6228H39.7597V43.5743H38.0582V40.6228ZM41.8902 40.6228H43.5917V43.5743H41.8902V40.6228ZM38.0582 46.0968H39.7597V49.0484H38.0582V46.0968ZM41.8902 46.0968H43.5917V49.0484H41.8902V46.0968ZM4.92897 29.6748H6.63051V32.6264H4.92897V29.6748ZM4.92897 35.1489H6.63051V38.1004H4.92897V35.1489ZM4.92897 40.6229H6.63051V43.5745H4.92897V40.6229ZM4.92897 46.097H6.63051V49.0486H4.92897V46.097ZM8.90163 29.675H10.6032V32.6265H8.90163V29.675ZM8.90163 35.149H10.6032V38.1006H8.90163V35.149ZM8.90163 40.6231H10.6032V43.5747H8.90163V40.6231ZM8.90163 46.0972H10.6032V49.0487H8.90163V46.0972ZM12.8743 29.6752H14.5758V32.6267H12.8743V29.6752ZM12.8743 35.1492H14.5758V38.1008H12.8743V35.1492ZM12.8743 40.6233H14.5758V43.5749H12.8743V40.6233ZM12.8743 46.0974H14.5758V49.0489H12.8743V46.0974ZM18.9589 17.2803H22.1112C22.5823 17.2803 22.962 16.8982 22.962 16.4293V13.2387C22.962 12.7674 22.58 12.3876 22.1112 12.3876H18.9589C18.4878 12.3876 18.1081 12.7698 18.1081 13.2387V16.4293C18.1081 16.9005 18.4901 17.2803 18.9589 17.2803ZM19.8097 14.0897H21.2605V15.5784H19.8097V14.0897ZM18.9589 24.2311H22.1112C22.5823 24.2311 22.962 23.849 22.962 23.3801V20.1894C22.962 19.7182 22.58 19.3384 22.1112 19.3384H18.9589C18.4878 19.3384 18.1081 19.7205 18.1081 20.1894V23.3801C18.1081 23.8513 18.4901 24.2311 18.9589 24.2311ZM19.8097 21.0404H21.2605V22.5291H19.8097V21.0404ZM16.1019 20.1871C16.1019 19.7159 15.7198 19.3361 15.2511 19.3361H12.0987C11.6276 19.3361 11.2479 19.7182 11.2479 20.1871V23.3777C11.2479 23.849 11.63 24.2288 12.0987 24.2288H15.2511C15.7222 24.2288 16.1019 23.8466 16.1019 23.3777V20.1871ZM14.4003 22.5291H12.9495V21.0404H14.4003V22.5291ZM40.3713 10.784H49.6527C49.7723 10.7958 49.8918 10.8004 50.009 10.8004C51.4879 10.8004 52.8426 9.99161 53.534 8.66473C54.2887 7.23234 54.0941 5.4506 53.0559 4.24093C52.2238 3.24221 50.9817 2.73118 49.7301 2.82025C49.2496 1.17918 47.7379 0 45.9449 0C44.0277 0 42.4246 1.37615 42.0754 3.19534C40.8801 3.14611 39.7715 3.7533 39.2043 4.76139C38.0347 5.23494 37.2496 6.3743 37.2496 7.66133C37.2496 9.3821 38.6487 10.784 40.3713 10.784ZM40.0268 6.28053C40.2916 6.21255 40.5073 6.02265 40.6081 5.76712C40.8166 5.2373 41.3323 4.89269 41.9229 4.89269C42.1268 4.89269 42.326 4.93489 42.5299 5.02398C42.8088 5.14589 43.1346 5.10838 43.3784 4.92551C43.6245 4.74265 43.751 4.44258 43.7135 4.13781C43.7042 4.07217 43.7065 4.00653 43.7065 3.94089C43.7065 2.70541 44.7096 1.70201 45.9448 1.70201C47.1542 1.70201 48.1385 2.64444 48.1831 3.84709C48.1925 4.112 48.3284 4.35815 48.544 4.51056C48.762 4.66294 49.0362 4.70514 49.2917 4.62543C50.187 4.33942 51.1503 4.61605 51.7527 5.34046C52.348 6.03435 52.4558 7.05186 52.0222 7.87473C51.5886 8.70462 50.7073 9.18054 49.7698 9.08674C49.7417 9.0844 49.7136 9.08205 49.6855 9.08205H40.3669C39.5841 9.08205 38.9489 8.44439 38.9489 7.66371C38.9489 7.012 39.3919 6.44227 40.0247 6.28053L40.0268 6.28053ZM53.147 52.298H50.9837V48.5377C52.7064 48.036 53.9977 46.0433 53.9977 43.645C53.8852 40.5177 52.1766 38.4968 51.0399 37.1513C50.7962 36.87 50.4727 36.7153 50.1259 36.7153C49.779 36.7153 49.4556 36.87 49.2048 37.1584C49.0969 37.2873 48.9821 37.4233 48.8649 37.5639V21.7889C48.8649 21.5076 48.7243 21.2426 48.4923 21.0856L34.1043 11.2976C33.8441 11.1195 33.5066 11.1031 33.2277 11.2484C32.9488 11.3961 32.7754 11.6845 32.7754 12.0009V29.2392H25.8142L25.8118 9.68015C25.8118 9.20893 25.4298 8.82913 24.961 8.82913H22.4064V6.80361C22.4064 5.74866 21.5485 4.89296 20.4962 4.89296H17.9556V0.851274C17.9556 0.380057 17.5735 0.000254983 17.1048 0.000254983C16.6337 0.000254983 16.254 0.382386 16.254 0.851274V4.89296H13.7133C12.6586 4.89296 11.8032 5.751 11.8032 6.80361V8.82913H9.24847C8.77738 8.82913 8.39767 9.21126 8.39767 9.68015V25.9851H3.56017C2.17267 25.9851 1.04533 27.1128 1.04533 28.5006V52.298H0.8508C0.379704 52.298 0 52.6801 0 53.149C0 53.6202 0.382032 54 0.8508 54H53.1492C53.6203 54 54 53.6179 54 53.149C54 52.6778 53.618 52.298 53.1492 52.298L53.147 52.298ZM48.865 48.397C49.0009 48.4556 49.1392 48.5072 49.2822 48.5447V52.298H48.865V48.397ZM50.1259 38.7099C51.1338 39.9289 52.2142 41.4481 52.2963 43.6752C52.2963 45.4569 51.3049 46.962 50.133 46.962C48.9541 46.962 47.958 45.4569 47.958 43.7057C48.04 41.4481 49.1228 39.9242 50.1283 38.7099H50.1259ZM13.5049 6.80327C13.5049 6.68605 13.5963 6.59462 13.7135 6.59462H20.4989C20.6161 6.59462 20.7075 6.68604 20.7075 6.80327V8.82879H13.5051L13.5049 6.80327ZM10.0995 10.5308H24.1107V29.2388H18.4599V28.5003C18.4599 27.1124 17.3325 25.9848 15.945 25.9848H10.0997L10.0995 10.5308ZM14.7706 52.2979H2.74718V28.5006C2.74718 28.0599 3.11984 27.6871 3.56048 27.6871H15.9451C16.3857 27.6871 16.7584 28.0598 16.7584 28.5006V52.2979H14.7706ZM28.5118 52.2979H22.711V48.6454C22.711 48.3219 22.9852 48.0453 23.311 48.0453H27.9141C28.2446 48.0453 28.5141 48.3149 28.5141 48.6454V52.2979H28.5118ZM27.9118 46.3433H23.3086C22.0407 46.3433 21.0071 47.3748 21.0071 48.6454V52.2979H18.4594V30.9408H32.7724V52.2979H30.2131V48.6454C30.2131 47.3771 29.182 46.3433 27.9118 46.3433ZM35.1376 52.2979H34.4743L34.4766 13.609L47.1636 22.2386V40.0932C46.6738 41.0896 46.3058 42.2687 46.2566 43.6754C46.2566 44.9226 46.5965 46.0479 47.1636 46.9129V52.2979H35.1376ZM23.8126 33.0858H20.6719C20.2008 33.0858 19.8211 33.4679 19.8211 33.9368V37.1275C19.8211 37.5987 20.2032 37.9785 20.6719 37.9785H23.8126C24.2837 37.9785 24.6634 37.5963 24.6634 37.1275V33.9368C24.6634 33.4656 24.2814 33.0858 23.8126 33.0858ZM22.9618 36.2788H21.5251V34.7901H22.9618V36.2788ZM27.4079 37.9808H30.5602C31.0313 37.9808 31.411 37.5986 31.411 37.1297V33.9391C31.411 33.4679 31.029 33.0881 30.5602 33.0881H27.4079C26.9368 33.0881 26.5571 33.4702 26.5571 33.9391V37.1297C26.5571 37.601 26.9391 37.9808 27.4079 37.9808ZM28.2587 34.7878H29.7095V36.2764H28.2587V34.7878ZM23.8126 39.2795H20.6719C20.2008 39.2795 19.8211 39.6617 19.8211 40.1306V43.3212C19.8211 43.7924 20.2032 44.1723 20.6719 44.1723H23.8126C24.2837 44.1723 24.6634 43.7901 24.6634 43.3212V40.1306C24.6634 39.6593 24.2814 39.2795 23.8126 39.2795ZM22.9618 42.4702H21.5251V40.9815H22.9618V42.4702ZM31.411 43.3236V40.1329C31.411 39.6617 31.029 39.2819 30.5602 39.2819H27.4078C26.9367 39.2819 26.557 39.664 26.557 40.1329V43.3236C26.557 43.7948 26.9391 44.1746 27.4078 44.1746H30.5602C31.0313 44.1746 31.411 43.7925 31.411 43.3236ZM29.7094 42.4702H28.2586V40.9815H29.7094V42.4702ZM12.0982 17.2799H15.2506C15.7217 17.2799 16.1014 16.8978 16.1014 16.4289V13.2382C16.1014 12.767 15.7194 12.3872 15.2506 12.3872H12.0982C11.6271 12.3872 11.2474 12.7694 11.2474 13.2382V16.4289C11.2474 16.9001 11.6295 17.2799 12.0982 17.2799ZM12.949 14.0893H14.3998V15.5779H12.949V14.0893Z" fill="var(--fill-0, #C29E66)"/>
</svg>
