<svg preserveAspectRatio="none" width="100%" height="100%" overflow="visible" style="display: block;" viewBox="0 0 162.48 17.1202" fill="none" xmlns="http://www.w3.org/2000/svg">
<g id="Layer_1" clip-path="url(#clip0_2067_395)">
<path id="Vector" d="M13.8214 9.87665H9.36764V7.99725H15.8477V12.9111C14.2717 15.6421 11.668 17.1202 8.45731 17.1202C3.57282 17.1202 0 13.5474 0 8.57477C0 3.60219 3.57282 0 8.45731 0C11.4918 0 14.0661 1.38997 15.6127 3.81753L13.9193 5.03131C12.8915 3.06382 10.8261 1.90877 8.4671 1.90877C4.83554 1.90877 2.10454 4.6985 2.10454 8.57477C2.10454 12.451 4.83554 15.2114 8.4671 15.2114C10.738 15.2114 12.5293 14.2423 13.8312 12.2748V9.87665H13.8214Z" fill="var(--fill-0, #C29E66)"/>
<path id="Vector_2" d="M21.7599 8.57477C21.7599 3.60219 25.3328 0 30.2173 0C35.1017 0 38.7039 3.60219 38.7039 8.57477C38.7039 13.5474 35.1017 17.1202 30.2173 17.1202C25.3328 17.1202 21.7599 13.5474 21.7599 8.57477ZM36.5798 8.57477C36.5798 4.6985 33.8782 1.90877 30.2173 1.90877C26.5563 1.90877 23.8547 4.6985 23.8547 8.57477C23.8547 12.451 26.5857 15.2114 30.2173 15.2114C33.8488 15.2114 36.5798 12.4217 36.5798 8.57477Z" fill="var(--fill-0, #C29E66)"/>
<path id="Vector_3" d="M45.3014 0.362176H47.3276V14.8199H57.9972V16.6993H45.3014V0.362176Z" fill="var(--fill-0, #C29E66)"/>
<path id="Vector_4" d="M70.4874 0.362176C75.7928 0.362176 79.0621 3.8469 79.0621 8.57477C79.0621 13.3026 75.9396 16.6993 70.4874 16.6993H63.4885V0.362176H70.4874ZM65.5148 2.24158V14.8199H70.4874C74.6964 14.8199 76.9772 12.2161 76.9772 8.5454C76.9772 4.8747 74.5496 2.24158 70.4874 2.24158H65.5148Z" fill="var(--fill-0, #C29E66)"/>
<path id="Vector_5" d="M94.4497 0.362176H103.817C107.028 0.362176 108.937 2.0556 108.937 4.90406C108.937 7.20437 107.449 9.08378 105.061 9.51447L109.152 16.6993H106.911L102.819 9.54384H96.4857V16.6993H94.4595V0.362176H94.4497ZM103.7 7.63507C105.765 7.63507 106.822 6.69537 106.822 4.97258C106.822 3.2498 105.765 2.24158 103.788 2.24158H96.4857V7.63507H103.7Z" fill="var(--fill-0, #C29E66)"/>
<path id="Vector_6" d="M115.691 0.362176H117.746V16.758H115.691V0.362176Z" fill="var(--fill-0, #C29E66)"/>
<path id="Vector_7" d="M132.694 0.362176C137.999 0.362176 141.268 3.8469 141.268 8.57477C141.268 13.3026 138.146 16.6993 132.694 16.6993H125.695V0.362176H132.694ZM127.721 2.24158V14.8199H132.694C136.903 14.8199 139.183 12.2161 139.183 8.5454C139.183 4.8747 136.756 2.24158 132.694 2.24158H127.721Z" fill="var(--fill-0, #C29E66)"/>
<path id="Vector_8" d="M147.788 0.362176H157.155C160.366 0.362176 162.275 2.0556 162.275 4.90406C162.275 7.20437 160.787 9.08378 158.398 9.51447L162.49 16.6993H160.248L156.157 9.54384H149.824V16.6993H147.797V0.362176H147.788ZM157.028 7.63507C159.093 7.63507 160.15 6.69537 160.15 4.97258C160.15 3.2498 159.093 2.24158 157.116 2.24158H149.814V7.63507H157.028Z" fill="var(--fill-0, #C29E66)"/>
</g>
<defs>
<clipPath id="clip0_2067_395">
<rect width="162.48" height="17.1202" fill="white"/>
</clipPath>
</defs>
</svg>
