<svg preserveAspectRatio="none" width="100%" height="100%" overflow="visible" style="display: block;" viewBox="0 0 50.6014 48.322" fill="none" xmlns="http://www.w3.org/2000/svg">
<g id="Group 4">
<path id="Vector" d="M49.9365 12.426C49.6705 12.352 49.3945 12.508 49.3205 12.773L47.9015 17.858C44.8965 7.581 35.5865 0.3 25.0935 0.3C11.9515 0.3 1.2605 11.386 1.2605 25.013C1.2605 25.289 1.4845 25.513 1.7605 25.513C2.0365 25.513 2.2605 25.289 2.2605 25.013C2.2605 11.937 12.5035 1.3 25.0935 1.3C35.2375 1.3 44.2195 8.418 47.0125 18.42L42.9695 15.067C42.7565 14.891 42.4415 14.92 42.2655 15.132C42.0885 15.345 42.1195 15.66 42.3305 15.836L47.5605 20.173C47.5605 20.173 47.5635 20.174 47.5655 20.175C47.5745 20.182 47.5855 20.186 47.5945 20.193C47.6115 20.205 47.6295 20.213 47.6475 20.223C47.6755 20.238 47.7025 20.254 47.7315 20.263C47.7365 20.264 47.7405 20.268 47.7455 20.27C47.7555 20.273 47.7655 20.272 47.7755 20.274C47.7855 20.276 47.7975 20.277 47.8095 20.278C47.8325 20.281 47.8565 20.288 47.8795 20.288C47.8965 20.288 47.9105 20.279 47.9275 20.278C47.9465 20.276 47.9645 20.281 47.9835 20.278C48.0045 20.274 48.0195 20.261 48.0385 20.254C48.0675 20.244 48.0955 20.233 48.1215 20.218C48.1395 20.208 48.1585 20.202 48.1745 20.19C48.1805 20.186 48.1835 20.179 48.1895 20.175C48.2025 20.165 48.2115 20.151 48.2235 20.14C48.2365 20.127 48.2535 20.122 48.2655 20.108C48.2715 20.101 48.2735 20.091 48.2795 20.083C48.3005 20.054 48.3145 20.022 48.3295 19.99C48.3395 19.968 48.3545 19.948 48.3605 19.926L48.3625 19.924L50.2825 13.043C50.3575 12.775 50.2015 12.5 49.9365 12.426Z" fill="var(--fill-0, #C29E66)" stroke="var(--stroke-0, #C29E66)" stroke-width="0.6"/>
<path id="Vector_2" d="M48.8425 22.808C48.5665 22.808 48.3425 23.032 48.3425 23.308C48.3425 36.384 38.1005 47.022 25.5095 47.022C15.3645 47.022 6.38152 39.904 3.58852 29.902L7.63352 33.255C7.72652 33.332 7.83952 33.37 7.95152 33.37C8.09552 33.37 8.23852 33.308 8.33652 33.189C8.51252 32.976 8.48352 32.661 8.27052 32.485L3.03952 28.149C3.03952 28.149 3.03752 28.148 3.03552 28.147C3.02752 28.14 3.01652 28.136 3.00852 28.13C2.98352 28.112 2.95652 28.103 2.92952 28.09C2.90652 28.078 2.88452 28.062 2.86052 28.055C2.85852 28.054 2.85752 28.053 2.85552 28.052C2.84752 28.05 2.83952 28.052 2.83252 28.05C2.80652 28.044 2.77852 28.046 2.75152 28.044C2.72352 28.042 2.69652 28.035 2.66852 28.038C2.65752 28.039 2.64752 28.042 2.63652 28.044C2.62952 28.045 2.62352 28.043 2.61652 28.044C2.59352 28.049 2.57552 28.064 2.55452 28.071C2.53052 28.079 2.50552 28.083 2.48352 28.094C2.47352 28.099 2.46552 28.107 2.45652 28.113C2.42952 28.131 2.40752 28.152 2.38452 28.174C2.36852 28.189 2.34952 28.197 2.33552 28.214C2.33552 28.214 2.33452 28.217 2.33352 28.219C2.32752 28.226 2.32452 28.236 2.31852 28.243C2.29852 28.27 2.28652 28.301 2.27252 28.331C2.26252 28.352 2.24752 28.372 2.24052 28.394C2.24052 28.394 2.23952 28.396 2.23852 28.398L0.318521 35.278C0.244521 35.545 0.399521 35.82 0.665521 35.894C0.710521 35.907 0.755521 35.913 0.800521 35.913C1.01952 35.913 1.21952 35.768 1.28152 35.548L2.70152 30.465C5.70652 40.741 15.0165 48.022 25.5095 48.022C38.6505 48.022 49.3425 36.935 49.3425 23.308C49.3425 23.032 49.1185 22.808 48.8425 22.808Z" fill="var(--fill-0, #C29E66)" stroke="var(--stroke-0, #C29E66)" stroke-width="0.6"/>
<path id="Vector_3" d="M25.3015 8.75501C25.5775 8.75501 25.8015 8.53101 25.8015 8.25501V4.86201C25.8015 4.58601 25.5775 4.36201 25.3015 4.36201C25.0255 4.36201 24.8015 4.58601 24.8015 4.86201V8.25501C24.8015 8.53101 25.0255 8.75501 25.3015 8.75501Z" fill="var(--fill-0, #C29E66)" stroke="var(--stroke-0, #C29E66)" stroke-width="0.6"/>
<path id="Vector_4" d="M25.3015 39.567C25.0255 39.567 24.8015 39.791 24.8015 40.067V43.46C24.8015 43.736 25.0255 43.96 25.3015 43.96C25.5775 43.96 25.8015 43.736 25.8015 43.46V40.067C25.8015 39.791 25.5775 39.567 25.3015 39.567Z" fill="var(--fill-0, #C29E66)" stroke="var(--stroke-0, #C29E66)" stroke-width="0.6"/>
<path id="Vector_5" d="M13.7005 13.267C13.7985 13.365 13.9265 13.413 14.0545 13.413C14.1825 13.413 14.3105 13.364 14.4085 13.267C14.6035 13.072 14.6035 12.755 14.4085 12.56L12.0085 10.161C11.8135 9.96603 11.4965 9.96603 11.3015 10.161C11.1065 10.356 11.1065 10.673 11.3015 10.868L13.7005 13.267Z" fill="var(--fill-0, #C29E66)" stroke="var(--stroke-0, #C29E66)" stroke-width="0.6"/>
<path id="Vector_6" d="M36.1966 35.7631L38.5946 38.1611C38.6926 38.2591 38.8206 38.3071 38.9486 38.3071C39.0766 38.3071 39.2036 38.2591 39.3016 38.1611C39.4966 37.9661 39.4966 37.6491 39.3016 37.4541L36.9036 35.0561C36.7086 34.8611 36.3916 34.8611 36.1966 35.0561C36.0016 35.2511 36.0006 35.5671 36.1966 35.7631Z" fill="var(--fill-0, #C29E66)" stroke="var(--stroke-0, #C29E66)" stroke-width="0.6"/>
<path id="Vector_7" d="M44.6005 24.661C44.8765 24.661 45.1005 24.437 45.1005 24.161C45.1005 23.885 44.8765 23.661 44.6005 23.661H41.2075C40.9315 23.661 40.7075 23.885 40.7075 24.161C40.7075 24.437 40.9315 24.661 41.2075 24.661H44.6005Z" fill="var(--fill-0, #C29E66)" stroke="var(--stroke-0, #C29E66)" stroke-width="0.6"/>
<path id="Vector_8" d="M9.39557 24.661C9.67157 24.661 9.89557 24.437 9.89557 24.161C9.89557 23.885 9.67157 23.661 9.39557 23.661H6.00257C5.72657 23.661 5.50257 23.885 5.50257 24.161C5.50257 24.437 5.72657 24.661 6.00257 24.661H9.39557Z" fill="var(--fill-0, #C29E66)" stroke="var(--stroke-0, #C29E66)" stroke-width="0.6"/>
<path id="Vector_9" d="M36.5495 13.414C36.6775 13.414 36.8055 13.365 36.9035 13.268L39.3015 10.868C39.4965 10.673 39.4965 10.356 39.3015 10.161C39.1065 9.96603 38.7895 9.96603 38.5945 10.161L36.1965 12.561C36.0015 12.756 36.0015 13.073 36.1965 13.268C36.2935 13.365 36.4215 13.414 36.5495 13.414Z" fill="var(--fill-0, #C29E66)" stroke="var(--stroke-0, #C29E66)" stroke-width="0.6"/>
<path id="Vector_10" d="M11.3015 38.1611C11.3995 38.2591 11.5275 38.3071 11.6555 38.3071C11.7835 38.3071 11.9115 38.2581 12.0095 38.1611L14.4095 35.7631C14.6045 35.5681 14.6045 35.2511 14.4095 35.0561C14.2145 34.8611 13.8975 34.8611 13.7025 35.0561L11.3015 37.4541C11.1055 37.6491 11.1055 37.9661 11.3015 38.1611Z" fill="var(--fill-0, #C29E66)" stroke="var(--stroke-0, #C29E66)" stroke-width="0.6"/>
<path id="Vector_11" d="M24.8015 23.797L16.8965 26.345C16.6335 26.429 16.4895 26.711 16.5735 26.974C16.6415 27.186 16.8385 27.321 17.0495 27.321C17.1005 27.321 17.1525 27.313 17.2025 27.297L25.4535 24.638C25.4605 24.636 25.4655 24.63 25.4735 24.627C25.5075 24.614 25.5355 24.594 25.5655 24.575C25.5905 24.559 25.6165 24.546 25.6385 24.526C25.6625 24.504 25.6795 24.476 25.6995 24.449C25.7175 24.424 25.7375 24.401 25.7505 24.373C25.7635 24.346 25.7685 24.316 25.7755 24.286C25.7845 24.252 25.7945 24.219 25.7965 24.183C25.7965 24.175 25.8005 24.169 25.8005 24.162V13.343C25.8005 13.067 25.5765 12.843 25.3005 12.843C25.0245 12.843 24.8005 13.067 24.8005 13.343L24.8015 23.797Z" fill="var(--fill-0, #C29E66)" stroke="var(--stroke-0, #C29E66)" stroke-width="0.6"/>
</g>
</svg>
