<svg preserveAspectRatio="none" width="100%" height="100%" overflow="visible" style="display: block;" viewBox="0 0 52.8582 47.9639" fill="none" xmlns="http://www.w3.org/2000/svg">
<g id="Layer_1" clip-path="url(#clip0_2067_411)">
<g id="Group">
<path id="Vector" d="M48.468 42.0421C43.802 42.0805 38.7989 40.985 35.8568 37.078C34.8455 35.7297 34.11 34.2588 33.6886 32.6271L32.3478 27.4714C31.911 25.7784 31.4437 23.8479 30.3327 22.4843C29.6125 21.6186 28.6472 21.113 27.5056 21.113H23.4755V36.9631C23.9199 37.1086 19.8898 37.124 19.8898 37.124L20.9088 37.0627C21.0237 37.0627 21.1846 36.9094 21.1846 36.7562V9.41505C21.1846 9.30014 21.0544 9.1316 20.9701 9.12394L19.8822 9.04734L19.9051 8.12805H27.6435C31.2215 8.13571 35.9028 9.43037 36.4161 13.6131C36.554 14.7316 36.5004 15.8348 36.056 16.8843C35.2745 18.7305 33.5123 20.3929 31.5433 20.7759C32.8151 21.0824 33.6119 23.3499 33.9414 24.4607C34.3858 25.9699 34.7229 27.4484 35.0753 28.9806C35.3588 30.2446 35.65 31.4473 36.0637 32.6654C38.0404 38.4569 42.4765 40.985 48.4987 40.9467L48.4757 42.0345L48.468 42.0421ZM33.8954 12.8777C33.5123 11.3609 32.432 10.2271 30.9687 9.71382C30.0569 9.41505 29.1528 9.21587 28.1645 9.21587L23.4832 9.19289V20.0328L28.1032 20.0099C29.1069 20.0099 30.0339 19.8183 30.9687 19.5196C33.8341 18.585 34.5543 15.4824 33.8954 12.87V12.8777Z" fill="var(--fill-0, #C29E66)"/>
<g id="Group_2">
<path id="Vector_2" d="M27.8886 33.0638V25.8703H20.1963V24.9893H29.7428V32.8646C28.1874 34.7874 26.0958 36.2123 23.7283 36.9784C21.2689 37.6908 18.6256 37.6985 16.1969 36.8328C12.7797 35.6225 10.0139 32.9259 8.74968 29.5168C7.7843 26.9198 7.7843 24.0011 8.72669 21.4041C9.66908 18.8071 11.4543 16.7081 13.7298 15.2372C15.3694 14.18 17.1929 13.5748 19.139 13.414C23.5828 13.0462 27.3293 15.0074 30.0646 18.4164H27.8427C27.3447 17.8112 26.8466 17.2826 26.272 16.777C22.3722 13.4063 16.5799 13.5135 12.9483 17.2443C9.60779 20.6763 9.27067 25.6482 11.0635 29.9382C12.8793 34.2895 17.055 37.0244 21.8129 36.4575C24.188 36.1281 26.3257 34.9406 27.8963 33.0714L27.8886 33.0638Z" fill="var(--fill-0, #C29E66)"/>
<path id="Vector_3" d="M17.599 26.9428C16.9937 25.8856 17.1852 26.0848 16.1662 25.426C17.1929 24.7825 17.009 24.951 17.599 23.9168C18.2119 24.951 17.982 24.7595 19.0317 25.426C18.028 26.0925 18.2272 25.8397 17.599 26.9428Z" fill="var(--fill-0, #C29E66)"/>
</g>
<path id="Vector_4" d="M51.4254 42.8159C50.8202 41.7587 51.0117 41.9579 49.9927 41.2991C51.0194 40.6556 50.8355 40.8241 51.4254 39.7899C52.0384 40.8241 51.8085 40.6326 52.8582 41.2991C51.8545 41.9655 52.0537 41.7127 51.4254 42.8159Z" fill="var(--fill-0, #C29E66)"/>
</g>
<path id="Vector_5" d="M23.9888 47.9639C10.757 47.9639 0 37.2082 0 23.9858C0 10.7633 10.757 0 23.9888 0C37.2206 0 47.9777 10.7557 47.9777 23.9858C47.9777 37.2159 37.2206 47.9716 23.9888 47.9716V47.9639ZM23.9888 1.53215C11.6075 1.53215 1.53234 11.606 1.53234 23.9858C1.53234 36.3655 11.6075 46.4394 23.9888 46.4394C36.3702 46.4394 46.4453 36.3655 46.4453 23.9858C46.4453 11.606 36.3702 1.53215 23.9888 1.53215Z" fill="var(--fill-0, #C29E66)"/>
</g>
<defs>
<clipPath id="clip0_2067_411">
<rect width="52.8582" height="47.9639" fill="white"/>
</clipPath>
</defs>
</svg>
