<svg width="231" height="48" viewBox="0 0 231 48" fill="none" xmlns="http://www.w3.org/2000/svg">
<g clip-path="url(#clip0_2006_21)">
<path d="M48.468 42.0421C43.802 42.0804 38.7989 40.985 35.8568 37.078C34.8455 35.7297 34.11 34.2588 33.6886 32.6271L32.3478 27.4714C31.911 25.7784 31.4437 23.8479 30.3327 22.4843C29.6125 21.6186 28.6472 21.113 27.5056 21.113H23.4755V36.9631C23.9199 37.1086 19.8898 37.1239 19.8898 37.1239L20.9088 37.0627C21.0238 37.0627 21.1846 36.9094 21.1846 36.7562V9.41505C21.1846 9.30014 21.0544 9.1316 20.9701 9.12394L19.8822 9.04733L19.9051 8.12804H27.6435C31.2215 8.1357 35.9028 9.43037 36.4161 13.6131C36.554 14.7316 36.5004 15.8348 36.056 16.8843C35.2745 18.7305 33.5123 20.3929 31.5433 20.7759C32.8151 21.0824 33.6119 23.3499 33.9414 24.4607C34.3858 25.9699 34.7229 27.4484 35.0753 28.9806C35.3588 30.2446 35.65 31.4473 36.0637 32.6654C38.0404 38.4569 42.4766 40.985 48.4987 40.9467L48.4757 42.0345L48.468 42.0421ZM33.8954 12.8777C33.5123 11.3609 32.432 10.2271 30.9687 9.71382C30.0569 9.41505 29.1528 9.21587 28.1645 9.21587L23.4832 9.19289V20.0328L28.1032 20.0099C29.1069 20.0099 30.0339 19.8183 30.9687 19.5196C33.8341 18.585 34.5543 15.4824 33.8954 12.87V12.8777Z" fill="#C29E66"/>
<path d="M27.8886 33.0638V25.8703H20.1963V24.9893H29.7428V32.8646C28.1875 34.7874 26.0958 36.2123 23.7283 36.9784C21.2689 37.6908 18.6256 37.6985 16.1969 36.8328C12.7797 35.6224 10.0139 32.9259 8.74968 29.5168C7.78431 26.9198 7.78431 24.0011 8.7267 21.4041C9.66909 18.8071 11.4543 16.7081 13.7298 15.2372C15.3694 14.18 17.1929 13.5748 19.139 13.414C23.5828 13.0462 27.3293 15.0074 30.0646 18.4164H27.8427C27.3447 17.8112 26.8467 17.2826 26.272 16.777C22.3722 13.4063 16.58 13.5135 12.9483 17.2443C9.60779 20.6763 9.27068 25.6482 11.0635 29.9382C12.8793 34.2895 17.055 37.0244 21.8129 36.4575C24.188 36.1281 26.3257 34.9406 27.8963 33.0714L27.8886 33.0638Z" fill="#C29E66"/>
<path d="M17.599 26.9428C16.9937 25.8856 17.1852 26.0848 16.1662 25.426C17.1929 24.7825 17.009 24.951 17.599 23.9168C18.2119 24.951 17.982 24.7595 19.0317 25.426C18.028 26.0925 18.2272 25.8397 17.599 26.9428Z" fill="#C29E66"/>
<path d="M51.4254 42.8159C50.8202 41.7587 51.0117 41.9579 49.9927 41.2991C51.0194 40.6556 50.8355 40.8241 51.4254 39.7899C52.0384 40.8241 51.8085 40.6326 52.8582 41.2991C51.8545 41.9655 52.0537 41.7127 51.4254 42.8159Z" fill="#C29E66"/>
<path d="M23.9888 47.9639C10.757 47.9639 0 37.2082 0 23.9858C0 10.7633 10.757 0 23.9888 0C37.2206 0 47.9777 10.7557 47.9777 23.9858C47.9777 37.2159 37.2206 47.9716 23.9888 47.9716V47.9639ZM23.9888 1.53215C11.6075 1.53215 1.53234 11.606 1.53234 23.9858C1.53234 36.3655 11.6075 46.4394 23.9888 46.4394C36.3702 46.4394 46.4453 36.3655 46.4453 23.9858C46.4453 11.606 36.3702 1.53215 23.9888 1.53215Z" fill="#C29E66"/>
</g>
<g clip-path="url(#clip1_2006_21)">
<path d="M82.3413 24.5595H77.8875V22.6801H84.3675V27.5939C82.7916 30.3249 80.1878 31.803 76.9772 31.803C72.0927 31.803 68.5199 28.2302 68.5199 23.2576C68.5199 18.285 72.0927 14.6828 76.9772 14.6828C80.0116 14.6828 82.586 16.0728 84.1326 18.5004L82.4392 19.7141C81.4114 17.7466 79.346 16.5916 76.9869 16.5916C73.3554 16.5916 70.6244 19.3813 70.6244 23.2576C70.6244 27.1339 73.3554 29.8942 76.9869 29.8942C79.2579 29.8942 81.0492 28.9252 82.3511 26.9577V24.5595H82.3413Z" fill="#C29E66"/>
<path d="M90.2798 23.2576C90.2798 18.285 93.8526 14.6828 98.7371 14.6828C103.622 14.6828 107.224 18.285 107.224 23.2576C107.224 28.2302 103.622 31.803 98.7371 31.803C93.8526 31.803 90.2798 28.2302 90.2798 23.2576ZM105.1 23.2576C105.1 19.3813 102.398 16.5916 98.7371 16.5916C95.0762 16.5916 92.3746 19.3813 92.3746 23.2576C92.3746 27.1339 95.1056 29.8942 98.7371 29.8942C102.369 29.8942 105.1 27.1045 105.1 23.2576Z" fill="#C29E66"/>
<path d="M113.821 15.045H115.847V29.5027H126.517V31.3821H113.821V15.045Z" fill="#C29E66"/>
<path d="M139.007 15.045C144.313 15.045 147.582 18.5297 147.582 23.2576C147.582 27.9855 144.459 31.3821 139.007 31.3821H132.008V15.045H139.007ZM134.035 16.9244V29.5027H139.007C143.216 29.5027 145.497 26.8989 145.497 23.2282C145.497 19.5575 143.069 16.9244 139.007 16.9244H134.035Z" fill="#C29E66"/>
<path d="M162.97 15.045H172.337C175.548 15.045 177.457 16.7384 177.457 19.5869C177.457 21.8872 175.969 23.7666 173.58 24.1973L177.672 31.3821H175.43L171.339 24.2267H165.006V31.3821H162.979V15.045H162.97ZM172.22 22.3179C174.285 22.3179 175.342 21.3782 175.342 19.6554C175.342 17.9326 174.285 16.9244 172.308 16.9244H165.006V22.3179H172.22Z" fill="#C29E66"/>
<path d="M184.211 15.045H186.266V31.4408H184.211V15.045Z" fill="#C29E66"/>
<path d="M201.213 15.045C206.519 15.045 209.788 18.5297 209.788 23.2576C209.788 27.9855 206.666 31.3821 201.213 31.3821H194.215V15.045H201.213ZM196.241 16.9244V29.5027H201.213C205.423 29.5027 207.703 26.8989 207.703 23.2282C207.703 19.5575 205.276 16.9244 201.213 16.9244H196.241Z" fill="#C29E66"/>
<path d="M216.307 15.045H225.675C228.886 15.045 230.794 16.7384 230.794 19.5869C230.794 21.8872 229.307 23.7666 226.918 24.1973L231.01 31.3821H228.768L224.677 24.2267H218.343V31.3821H216.317V15.045H216.307ZM225.548 22.3179C227.613 22.3179 228.67 21.3782 228.67 19.6554C228.67 17.9326 227.613 16.9244 225.636 16.9244H218.334V22.3179H225.548Z" fill="#C29E66"/>
</g>
<defs>
<clipPath id="clip0_2006_21">
<rect width="52.8582" height="47.9639" fill="white"/>
</clipPath>
<clipPath id="clip1_2006_21">
<rect width="162.48" height="17.1202" fill="white" transform="translate(68.5199 14.6828)"/>
</clipPath>
</defs>
</svg>
