<?xml version="1.0" encoding="UTF-8"?>
<svg id="Layer_1" xmlns="http://www.w3.org/2000/svg" version="1.1" viewBox="0 0 64 64.6">
  <!-- Generator: Adobe Illustrator 30.1.0, SVG Export Plug-In . SVG Version: 2.1.1 Build 136)  -->
  <defs>
    <style>
      .st0 {
        fill: #c29e66;
      }
    </style>
  </defs>
  <path class="st0" d="M13,24v-1.1c1.7-.3,3-1.5,3-2.9s-1.8-3-4-3-2-.6-2-1,.8-1,2-1,2,.6,2,1,.4,1,1,1,1-.4,1-1c0-1.4-1.3-2.6-3-2.9v-1c0-.6-.4-1-1-1s-1,.4-1,1v1c-1.7.3-3,1.5-3,2.9s1.8,3,4,3,2,.6,2,1-.8,1-2,1-2-.6-2-1-.4-1-1-1-1,.4-1,1c0,1.4,1.3,2.6,3,2.9v1.1c0,.6.4,1,1,1s1-.4,1-1Z"/>
  <path class="st0" d="M21,19h12c.6,0,1-.4,1-1s-.4-1-1-1h-12c-.6,0-1,.4-1,1s.4,1,1,1Z"/>
  <path class="st0" d="M21,15h18c.6,0,1-.4,1-1s-.4-1-1-1h-18c-.6,0-1,.4-1,1s.4,1,1,1Z"/>
  <path class="st0" d="M9,29h-2c-.6,0-1,.4-1,1s.4,1,1,1h2c.6,0,1-.4,1-1s-.4-1-1-1Z"/>
  <path class="st0" d="M9,34h-2c-.6,0-1,.4-1,1s.4,1,1,1h2c.6,0,1-.4,1-1s-.4-1-1-1Z"/>
  <path class="st0" d="M9,39h-2c-.6,0-1,.4-1,1s.4,1,1,1h2c.6,0,1-.4,1-1s-.4-1-1-1Z"/>
  <path class="st0" d="M9,44h-2c-.6,0-1,.4-1,1s.4,1,1,1h2c.6,0,1-.4,1-1s-.4-1-1-1Z"/>
  <path class="st0" d="M9,49h-2c-.6,0-1,.4-1,1s.4,1,1,1h2c.6,0,1-.4,1-1s-.4-1-1-1Z"/>
  <path class="st0" d="M29,21h-2c-.6,0-1,.4-1,1s.4,1,1,1h2c.6,0,1-.4,1-1s-.4-1-1-1Z"/>
  <path class="st0" d="M39,17h-2c-.6,0-1,.4-1,1s.4,1,1,1h2c.6,0,1-.4,1-1s-.4-1-1-1Z"/>
  <path class="st0" d="M12,30c0,.6.4,1,1,1h14c.6,0,1-.4,1-1s-.4-1-1-1h-14c-.6,0-1,.4-1,1Z"/>
  <path class="st0" d="M13,36h12c.6,0,1-.4,1-1s-.4-1-1-1h-12c-.6,0-1,.4-1,1s.4,1,1,1Z"/>
  <path class="st0" d="M13,41h12c.6,0,1-.4,1-1s-.4-1-1-1h-12c-.6,0-1,.4-1,1s.4,1,1,1Z"/>
  <path class="st0" d="M13,46h13c.6,0,1-.4,1-1s-.4-1-1-1h-13c-.6,0-1,.4-1,1s.4,1,1,1Z"/>
  <path class="st0" d="M28,49h-15c-.6,0-1,.4-1,1s.4,1,1,1h15c.6,0,1-.4,1-1s-.4-1-1-1Z"/>
  <path class="st0" d="M62,39c0-9-7-16.4-16-16.9V3c0-.6-.4-1-1-1-.3,0-.5,0-.7.3l-3.5,3.3-3.5-3.3c-.4-.4-1-.4-1.4,0l-3.5,3.3-3.5-3.3c-.4-.4-1-.4-1.4,0l-3.5,3.3-3.5-3.3c-.4-.4-1-.4-1.4,0l-3.5,3.3-3.5-3.3c-.4-.4-1-.4-1.4,0l-3.5,3.3-3.5-3.3c-.4-.4-1-.4-1.4,0-.2.2-.3.4-.3.7v58c0,.6.4,1,1,1,.3,0,.5,0,.7-.3l3.5-3.3,3.5,3.3c.4.4,1,.4,1.4,0l3.5-3.3,3.5,3.3c.4.4,1,.4,1.4,0l3.5-3.3,3.5,3.3c.4.4,1,.4,1.4,0l3.5-3.3,3.5,3.3c.4.4,1,.4,1.4,0l3.5-3.3,3.5,3.3c.4.4,1,.4,1.4,0,.2-.2.3-.4.3-.7v-5.1c9-.5,16-8,16-16.9ZM41.5,56.3c-.4-.4-1-.4-1.4,0l-3.5,3.3-3.5-3.3c-.4-.4-1-.4-1.4,0l-3.5,3.3-3.5-3.3c-.4-.4-1-.4-1.4,0l-3.5,3.3-3.5-3.3c-.4-.4-1-.4-1.4,0l-3.5,3.3-3.5-3.3c-.4-.4-1-.4-1.4,0l-2.5,2.4V5.3l2.5,2.4c.4.4,1,.4,1.4,0l3.5-3.3,3.5,3.3c.4.4,1,.4,1.4,0l3.5-3.3,3.5,3.3c.4.4,1,.4,1.4,0l3.5-3.3,3.5,3.3c.4.4,1,.4,1.4,0l3.5-3.3,3.5,3.3c.4.4,1,.4,1.4,0l2.5-2.4v16.7c-9.4.5-16.5,8.5-16,17.9.5,8.6,7.4,15.5,16,16v2.7l-2.5-2.4ZM45,54c-8.3,0-15-6.7-15-15s6.7-15,15-15,15,6.7,15,15c0,8.3-6.7,15-15,15Z"/>
  <path class="st0" d="M55.6,34.5l-2.8-2.8c-.4-.4-1-.4-1.4,0l-9.2,9.2-3.5-3.5c-.4-.4-1-.4-1.4,0l-2.8,2.8c-.4.4-.4,1,0,1.4l7.1,7.1c.4.4,1,.4,1.4,0l12.7-12.7c.4-.4.4-1,0-1.4ZM42.2,46.5l-5.7-5.7,1.4-1.4,3.5,3.5c.4.4,1,.4,1.4,0l9.2-9.2,1.4,1.4-11.3,11.3Z"/>
</svg>