<?xml version="1.0" encoding="UTF-8"?>
<svg id="Layer_1" xmlns="http://www.w3.org/2000/svg" version="1.1" viewBox="0 0 110 102.2">
  <!-- Generator: Adobe Illustrator 30.1.0, SVG Export Plug-In . SVG Version: 2.1.1 Build 136)  -->
  <defs>
    <style>
      .st0 {
        fill: #c29e66;
      }
    </style>
  </defs>
  <path class="st0" d="M71.8,3.7c-10.7,0-19.5,8.3-19.5,18.6,0,16.3,14.7,29,17.8,31.6v40.4s-30.3-14.7-30.3-14.7V24.6l8.2,4c.8.4,1.8,0,2.2-.8.4-.8,0-1.8-.7-2.2l-10.5-5.1h0c0,0-.1,0-.2,0,0,0-.1,0-.2,0,0,0-.2,0-.2,0,0,0,0,0,0,0s0,0,0,0c0,0-.2,0-.3,0,0,0-.1,0-.2,0,0,0-.1,0-.2,0L4,36.8c-.6.3-.9.8-.9,1.5v58.6c0,.6.3,1.1.8,1.4.5.3,1.1.3,1.6,0l32.8-15.9,32.8,15.9h0s0,0,0,0c.1,0,.3.1.5.1,0,0,0,0,0,0,0,0,.1,0,.2,0,.3,0,.6,0,.8-.2l33.4-16.2c.6-.3.9-.8.9-1.5V22c0-.6-.3-1.1-.8-1.4s-1.1-.3-1.6,0l-10.5,5.1h0c-.4.2-.7.5-.8.9-.1.4-.1.9,0,1.2.2.4.5.7.9.8.4.1.9.1,1.2,0l8.2-4v55l-30.3,14.7v-40.4c3.2-2.6,17.8-15.3,17.8-31.6S82.5,3.8,71.9,3.7c0,0,0,0-.1,0h0ZM71.8,6.9c9,0,16.2,6.9,16.2,15.4,0,13.7-12.6,25.5-16.2,28.7-3.6-3.2-16.2-15-16.2-28.7s7.2-15.4,16.2-15.4h0ZM71.8,12.3c-5.2,0-9.4,4.3-9.4,9.4s4.2,9.4,9.4,9.4,9.4-4.2,9.4-9.4-4.2-9.4-9.4-9.4ZM71.8,15.5c3.4,0,6.1,2.7,6.1,6.2s-2.7,6.2-6.1,6.2-6.1-2.7-6.1-6.2,2.7-6.2,6.1-6.2ZM36.6,24.6v55l-30.3,14.7v-55s30.3-14.7,30.3-14.7Z"/>
</svg>