<svg xmlns="http://www.w3.org/2000/svg" version="1.1" viewBox="-5.0 -10.0 110.0 135.0">
 <path d="m64.766 8.2734c-9.4062 0-17.125 7.3164-17.125 16.387 0 14.32 12.906 25.535 15.703 27.797l-0.003906 35.566-26.668-12.922v-48.418l7.2148 3.4922c0.70703 0.33594 1.5547 0.039063 1.8945-0.66406 0.34766-0.70703 0.054688-1.5625-0.65234-1.9102l-9.2695-4.4961v0.003906c-0.046875-0.015625-0.089844-0.03125-0.13672-0.042969-0.058594-0.023437-0.12109-0.042968-0.18359-0.054687-0.070312-0.015625-0.14453-0.027344-0.21484-0.03125-0.03125-0.003907-0.058594-0.007813-0.085938-0.007813-0.027343 0-0.054687 0.003906-0.082031 0.007813-0.078125 0.003906-0.15625 0.015625-0.23438 0.03125-0.046875 0.011719-0.089844 0.027343-0.13281 0.042969-0.058593 0.015624-0.11719 0.03125-0.17578 0.054687l-29.516 14.309c-0.49609 0.23828-0.8125 0.73828-0.8125 1.2852v51.59c0 0.49219 0.25391 0.95312 0.67188 1.2148 0.41797 0.26172 0.94141 0.28906 1.3867 0.070313l28.895-14.004 28.898 14-0.003907 0.003906h0.007813c0.125 0.0625 0.25781 0.10156 0.39844 0.125 0.007813 0 0.019532 0 0.03125 0.003906 0.0625 0.011719 0.12891 0.015625 0.19531 0.019531 0.25781 0 0.51562-0.070312 0.73828-0.20312l29.41-14.242c0.49219-0.24219 0.80078-0.74219 0.80078-1.2891v-51.594c0-0.49219-0.25391-0.94922-0.66797-1.2109s-0.93359-0.29297-1.3789-0.078125l-9.2617 4.4961 0.003906-0.003907c-0.34375 0.16797-0.60547 0.46094-0.73047 0.81641-0.12109 0.35938-0.10156 0.75391 0.066406 1.0938 0.16406 0.33984 0.45703 0.60156 0.81641 0.72656 0.35547 0.125 0.75 0.10156 1.0898-0.0625l7.2031-3.4922v48.414l-26.66 12.918 0.003907-35.559c2.7969-2.2617 15.691-13.48 15.691-27.797 0-9.0273-7.6523-16.32-17-16.383-0.042969-0.003906-0.085937-0.003906-0.125-0.003906zm0 2.8555c7.9336 0 14.27 6.082 14.27 13.527 0 12.027-11.055 22.469-14.262 25.246-3.2109-2.7773-14.273-13.215-14.273-25.246 0-7.4492 6.332-13.527 14.27-13.527zm0 4.7227c-4.5391 0-8.2383 3.7422-8.2383 8.3008s3.6992 8.2969 8.2383 8.2969 8.2383-3.7383 8.2383-8.2969-3.6992-8.3008-8.2383-8.3008zm0 2.8555c2.9805 0 5.3789 2.4141 5.3789 5.4453 0 3.0273-2.3984 5.4414-5.3789 5.4414s-5.3789-2.4102-5.3789-5.4414c0-3.0273 2.3984-5.4453 5.3789-5.4453zm-30.949 7.9648v48.418l-26.668 12.918-0.003907-48.406z"/>
<text x="0.0" y="117.5" font-size="5.0" font-weight="bold" font-family="Arbeit Regular, Helvetica, Arial-Unicode, Arial, Sans-serif" fill="#000000">Created by Alzam</text><text x="0.0" y="122.5" font-size="5.0" font-weight="bold" font-family="Arbeit Regular, Helvetica, Arial-Unicode, Arial, Sans-serif" fill="#000000">from Noun Project</text></svg>