<svg width="73" height="76" viewBox="0 0 73 76" fill="none" xmlns="http://www.w3.org/2000/svg">
<path d="M25.6494 7.72329L29.9163 11.1357L28.4393 16.3307C28.3266 16.7276 28.4721 17.1532 28.8035 17.3981C29.1358 17.6421 29.5841 17.6531 29.9264 17.4251L34.4777 14.4054L38.9423 17.4209C39.1079 17.5332 39.2997 17.5889 39.4907 17.5889C39.6925 17.5889 39.8935 17.5264 40.0651 17.4032C40.399 17.1616 40.5479 16.7369 40.4377 16.3392L38.9835 11.0605L43.2201 7.7292C43.5439 7.47418 43.6752 7.04436 43.5498 6.65084C43.4245 6.25733 43.0679 5.98458 42.6574 5.966L37.207 5.72364L35.3608 0.649378C35.2204 0.260089 34.8536 0.00168889 34.4423 0C34.4406 0 34.4398 0 34.4381 0C34.0285 0 33.6618 0.255022 33.5179 0.640933L31.6036 5.77009L26.2264 5.96516C25.8151 5.98036 25.4568 6.25058 25.3281 6.6424C25.1994 7.03507 25.3272 7.46573 25.6494 7.72329ZM32.3303 7.71822C32.7273 7.70387 33.0764 7.45138 33.2152 7.07813L34.4272 3.83124L35.5871 7.01818C35.7233 7.39227 36.0707 7.64813 36.4669 7.66587L39.9171 7.81956L37.2567 9.91124C36.9438 10.157 36.8092 10.5674 36.9152 10.9516L37.8362 14.2939L35.0319 12.3998C34.7031 12.1777 34.2724 12.176 33.941 12.3956L31.0594 14.3074L31.9871 11.0445C32.0965 10.6611 31.9644 10.2499 31.6541 10.0016L28.9524 7.84151L32.3303 7.71822ZM72.9331 72.1054L68.7006 61.1716C69.5914 60.8574 70.3618 60.2325 70.8438 59.394C71.3955 58.4347 71.5183 57.2854 71.2097 56.2408C71.9978 55.491 72.4637 54.4346 72.4637 53.3267C72.4637 52.2188 71.9978 51.1624 71.2097 50.4125C71.5183 49.3679 71.3964 48.2195 70.8438 47.2593C70.292 46.3 69.3626 45.6186 68.307 45.3652C68.0547 44.3055 67.3759 43.3724 66.4204 42.8184C65.464 42.2644 64.3201 42.1412 63.2797 42.4511C62.5328 41.6598 61.4814 41.192 60.377 41.192C59.2735 41.192 58.2213 41.6598 57.4744 42.4511C56.4339 42.1412 55.29 42.2636 54.3337 42.8184C53.3782 43.3724 52.6994 44.3055 52.4471 45.3652C51.3915 45.6186 50.4621 46.3 49.9103 47.2593C49.3585 48.2186 49.2357 49.3679 49.5444 50.4125C48.7563 51.1624 48.2903 52.2188 48.2903 53.3267C48.2903 54.4346 48.7563 55.491 49.5436 56.2408C49.2349 57.2854 49.3568 58.4339 49.9095 59.394C50.3914 60.2325 51.1619 60.8583 52.0526 61.1716L47.8201 72.1054C47.6713 72.4913 47.7772 72.9304 48.0868 73.2032C48.3963 73.4768 48.8429 73.5275 49.2054 73.3299L52.9517 71.288L54.3421 75.3337C54.4767 75.7256 54.84 75.9907 55.2522 75.9992C55.2581 75.9992 55.2648 75.9992 55.2715 75.9992C55.6761 75.9992 56.0403 75.75 56.1875 75.37L60.0313 65.4444C60.1457 65.4546 60.261 65.4613 60.377 65.4613C60.4931 65.4613 60.6083 65.4554 60.7227 65.4444L64.5657 75.37C64.7129 75.7509 65.0771 76 65.4817 76C65.4884 76 65.4943 76 65.5011 76C65.9132 75.9916 66.2766 75.7264 66.4111 75.3346L67.8006 71.2888L71.5469 73.3307C71.9095 73.5283 72.3561 73.4776 72.6656 73.204C72.976 72.9304 73.0828 72.4913 72.9331 72.1054ZM55.327 72.146L54.4329 69.5434C54.3387 69.2689 54.1293 69.0502 53.8601 68.9455C53.591 68.8408 53.289 68.8594 53.035 68.9979L50.6252 70.311L53.4169 63.0994C53.6818 63.3857 53.9897 63.6348 54.3345 63.8349C55.29 64.3889 56.4348 64.5122 57.4752 64.2023C57.6863 64.4252 57.9218 64.622 58.175 64.7908L55.327 72.146ZM58.6385 62.4956C58.4543 62.1874 58.1288 62.0152 57.794 62.0152C57.6317 62.0152 57.4676 62.0557 57.3171 62.1401C56.6879 62.4914 55.9402 62.4864 55.3178 62.1249C54.6954 61.7644 54.3169 61.1167 54.3051 60.3938C54.2967 59.861 53.8685 59.4312 53.3378 59.4227C52.6178 59.4109 51.9727 59.0309 51.6135 58.406C51.2544 57.7811 51.2485 57.0304 51.5984 56.3988C51.8566 55.9326 51.7002 55.3457 51.2443 55.0721C50.6261 54.7006 50.2568 54.0478 50.2568 53.3258C50.2568 52.6038 50.6261 51.9519 51.2434 51.5804C51.6985 51.3068 51.8558 50.719 51.5975 50.2537C51.2476 49.6221 51.2527 48.8714 51.6127 48.2465C51.9718 47.6216 52.617 47.2416 53.337 47.2298C53.8677 47.2213 54.2958 46.7915 54.3042 46.2587C54.316 45.5358 54.6945 44.8881 55.3169 44.5276C55.9394 44.167 56.6871 44.1611 57.3162 44.5124C57.7805 44.7716 58.3651 44.6145 58.6376 44.1568C59.0077 43.5362 59.6579 43.1655 60.3762 43.1655C61.0953 43.1655 61.7447 43.5362 62.1148 44.1568C62.3873 44.6145 62.9727 44.7716 63.4361 44.5124C64.0653 44.1611 64.813 44.1661 65.4355 44.5276C66.0579 44.8881 66.4364 45.5358 66.4481 46.2587C66.4566 46.7915 66.8847 47.2213 67.4154 47.2298C68.1354 47.2416 68.7805 47.6216 69.1397 48.2465C69.4988 48.8714 69.5047 49.6221 69.1548 50.2537C68.8966 50.7199 69.0539 51.3068 69.5089 51.5804C70.1272 51.9519 70.4964 52.6047 70.4964 53.3258C70.4964 54.0478 70.1272 54.6997 69.5089 55.0721C69.0539 55.3457 68.8966 55.9335 69.1548 56.3988C69.5047 57.0304 69.4997 57.7811 69.1397 58.406C68.7805 59.0309 68.1354 59.4109 67.4154 59.4227C66.8847 59.4312 66.4566 59.861 66.4481 60.3938C66.4364 61.1167 66.0587 61.7644 65.4355 62.1249C64.813 62.4864 64.0653 62.4914 63.4361 62.1401C62.9719 61.8809 62.3873 62.0388 62.1148 62.4956C61.7447 63.1163 61.0945 63.487 60.3762 63.487C59.6579 63.487 59.0077 63.1163 58.6385 62.4956ZM67.7191 68.9979C67.465 68.8594 67.1631 68.84 66.8939 68.9455C66.6248 69.0511 66.4153 69.2698 66.3211 69.5434L65.427 72.1451L62.5799 64.79C62.8339 64.6211 63.0694 64.4252 63.2797 64.2023C64.321 64.5122 65.4649 64.3889 66.4204 63.8349C66.7644 63.6356 67.0723 63.3857 67.338 63.0994L70.1297 70.311L67.7191 68.9979ZM67.3582 53.3267C67.3582 49.4616 64.2268 46.3178 60.377 46.3178C56.5273 46.3178 53.3958 49.4616 53.3958 53.3267C53.3958 57.1917 56.5273 60.3356 60.377 60.3356C64.2268 60.3356 67.3582 57.1917 67.3582 53.3267ZM60.377 58.3621C57.6115 58.3621 55.3624 56.1032 55.3624 53.3275C55.3624 50.5518 57.6123 48.2929 60.377 48.2929C63.1426 48.2929 65.3917 50.5518 65.3917 53.3275C65.3917 56.1032 63.1426 58.3621 60.377 58.3621ZM63.6616 51.6547L60.7858 56.0779C60.626 56.3236 60.3653 56.4857 60.0751 56.5187C60.0372 56.5229 60.0002 56.5254 59.9624 56.5254C59.7109 56.5254 59.467 56.4283 59.2828 56.2518L57.2363 54.2851C56.8444 53.9085 56.8301 53.2836 57.2061 52.8892C57.5812 52.4957 58.2036 52.4814 58.5964 52.8588L59.7874 54.0031L62.0164 50.5755C62.3133 50.1195 62.9222 49.9911 63.3773 50.2884C63.8306 50.5864 63.9585 51.1978 63.6616 51.6547ZM34.4381 20.4812C27.1314 20.4812 21.1873 26.4488 21.1873 33.7845C21.1873 41.1202 27.1314 47.0879 34.4381 47.0879C41.7448 47.0879 47.6889 41.1202 47.6889 33.7845C47.6889 26.4497 41.7448 20.4812 34.4381 20.4812ZM34.4381 45.1144C28.2156 45.1144 23.1538 40.0317 23.1538 33.7845C23.1538 27.5373 28.2156 22.4555 34.4381 22.4555C40.6606 22.4555 45.7224 27.5373 45.7224 33.7845C45.7224 40.0317 40.6606 45.1144 34.4381 45.1144ZM45.9445 52.798C45.7191 53.2937 45.1362 53.5124 44.6416 53.2861C41.4302 51.8151 37.9968 51.0695 34.4381 51.0695C22.9671 51.0695 12.8578 59.2209 10.401 70.452C10.3 70.9131 9.89293 71.2272 9.44209 71.2272C9.37228 71.2272 9.30163 71.2196 9.23013 71.2044C8.70024 71.0879 8.36463 70.5609 8.48071 70.0289C9.75919 64.1837 13.0244 58.8721 17.6749 55.073C22.3918 51.2189 28.3451 49.096 34.439 49.096C38.282 49.096 41.9896 49.9016 45.4583 51.4908C45.952 51.7163 46.1699 52.3015 45.9445 52.798ZM50.9272 22.2325L55.1941 25.6449L53.7171 30.84C53.6044 31.2368 53.7499 31.6624 54.0813 31.9073C54.4136 32.1514 54.8611 32.1624 55.2042 31.9344L59.7555 28.9146L64.2201 31.9301C64.3858 32.0424 64.5775 32.0982 64.7685 32.0982C64.9703 32.0982 65.1713 32.0357 65.3429 31.9124C65.6769 31.6709 65.8257 31.2461 65.7155 30.8484L64.2613 25.5698L68.4979 22.2384C68.8218 21.9834 68.953 21.5536 68.8276 21.1601C68.7023 20.7666 68.3457 20.4938 67.9352 20.4752L62.4857 20.2329L60.6386 15.1586C60.4973 14.771 60.1306 14.5118 59.7193 14.5101C59.7176 14.5101 59.7168 14.5101 59.7151 14.5101C59.3055 14.5101 58.9387 14.7651 58.7949 15.151L56.8814 20.2793L51.5042 20.4744C51.0929 20.4896 50.7346 20.7598 50.6059 21.1516C50.4772 21.5443 50.605 21.975 50.9272 22.2325ZM57.6073 22.2283C58.0043 22.214 58.3533 21.9615 58.4921 21.5882L59.7041 18.3413L60.864 21.5283C61.0003 21.9024 61.3477 22.1582 61.7438 22.1751L65.1941 22.3288L62.5336 24.4213C62.2207 24.6671 62.0862 25.0775 62.1921 25.4617L63.1132 28.804L60.3089 26.9099C59.98 26.6878 59.5494 26.6861 59.218 26.9057L56.3364 28.8175L57.2641 25.5546C57.3734 25.1712 57.2414 24.76 56.931 24.5117L54.2294 22.3516L57.6073 22.2283ZM13.6653 31.9301C13.831 32.0424 14.0228 32.0982 14.2137 32.0982C14.4156 32.0982 14.6166 32.0357 14.7882 31.9124C15.1221 31.6709 15.271 31.2461 15.1608 30.8484L13.7065 25.5698L17.9423 22.2384C18.2662 21.9834 18.3974 21.5536 18.272 21.1601C18.1467 20.7666 17.7901 20.4938 17.3796 20.4752L11.9301 20.2329L10.083 15.1586C9.94171 14.771 9.57499 14.5118 9.16369 14.5101C9.162 14.5101 9.16116 14.5101 9.15948 14.5101C8.74986 14.5101 8.38314 14.7651 8.23931 15.151L6.32495 20.2802L0.947749 20.4752C0.536448 20.4904 0.178136 20.7607 0.0494467 21.1525C-0.0792428 21.5443 0.0486055 21.9758 0.37075 22.2334L4.63769 25.6458L3.1607 30.8408C3.04799 31.2377 3.19351 31.6633 3.5249 31.9082C3.8563 32.1522 4.30461 32.1632 4.64778 31.9352L9.19901 28.9155L13.6653 31.9301ZM5.78243 28.8167L6.71018 25.5537C6.81952 25.1704 6.68747 24.7591 6.3771 24.5108L3.67546 22.3508L7.05251 22.2283C7.44951 22.214 7.79857 21.9615 7.93735 21.5882L9.14939 18.3405L10.3093 21.5274C10.4455 21.9015 10.7929 22.1574 11.1891 22.1743L14.6393 22.328L11.9789 24.4205C11.666 24.6662 11.5314 25.0766 11.6374 25.4608L12.5584 28.8032L9.75414 26.9091C9.42527 26.687 8.99462 26.6853 8.66323 26.9048L5.78243 28.8167Z" fill="#C29E66"/>
</svg>
