<svg width="69" height="69" viewBox="0 0 69 69" fill="none" xmlns="http://www.w3.org/2000/svg">
<path d="M31.6739 8.0903C31.7971 7.43078 32.1471 6.83512 32.6632 6.40646C33.1793 5.97781 33.8291 5.74316 34.5 5.74316C35.171 5.74316 35.8208 5.97781 36.3369 6.40646C36.853 6.83512 37.203 7.43078 37.3262 8.0903L40.3478 24.0695C40.5624 25.2056 41.1145 26.2506 41.932 27.0681C42.7495 27.8856 43.7945 28.4377 44.9305 28.6523L60.9098 31.6739C61.5693 31.7971 62.165 32.1471 62.5936 32.6632C63.0223 33.1793 63.2569 33.8291 63.2569 34.5C63.2569 35.171 63.0223 35.8208 62.5936 36.3369C62.165 36.853 61.5693 37.203 60.9098 37.3262L44.9305 40.3478C43.7945 40.5624 42.7495 41.1145 41.932 41.932C41.1145 42.7495 40.5624 43.7945 40.3478 44.9305L37.3262 60.9098C37.203 61.5693 36.853 62.165 36.3369 62.5936C35.8208 63.0223 35.171 63.2569 34.5 63.2569C33.8291 63.2569 33.1793 63.0223 32.6632 62.5936C32.1471 62.165 31.7971 61.5693 31.6739 60.9098L28.6523 44.9305C28.4377 43.7945 27.8856 42.7495 27.0681 41.932C26.2506 41.1145 25.2056 40.5624 24.0695 40.3478L8.0903 37.3262C7.43078 37.203 6.83512 36.853 6.40646 36.3369C5.97781 35.8208 5.74316 35.171 5.74316 34.5C5.74316 33.8291 5.97781 33.1793 6.40646 32.6632C6.83512 32.1471 7.43078 31.7971 8.0903 31.6739L24.0695 28.6523C25.2056 28.4377 26.2506 27.8856 27.0681 27.0681C27.8856 26.2506 28.4377 25.2056 28.6523 24.0695L31.6739 8.0903Z" stroke="#C29E66" stroke-width="3" stroke-linecap="round" stroke-linejoin="round"/>
<path d="M57.5 5.75V17.25" stroke="#C29E66" stroke-width="3" stroke-linecap="round" stroke-linejoin="round"/>
<path d="M63.25 11.5H51.75" stroke="#C29E66" stroke-width="3" stroke-linecap="round" stroke-linejoin="round"/>
<path d="M11.5 63.25C14.6756 63.25 17.25 60.6756 17.25 57.5C17.25 54.3244 14.6756 51.75 11.5 51.75C8.32436 51.75 5.75 54.3244 5.75 57.5C5.75 60.6756 8.32436 63.25 11.5 63.25Z" stroke="#C29E66" stroke-width="3" stroke-linecap="round" stroke-linejoin="round"/>
</svg>
