<?xml version="1.0" encoding="UTF-8"?>
<svg id="Layer_1" xmlns="http://www.w3.org/2000/svg" version="1.1" viewBox="0 0 110 111.5">
  <!-- Generator: Adobe Illustrator 30.1.0, SVG Export Plug-In . SVG Version: 2.1.1 Build 136)  -->
  <defs>
    <style>
      .st0 {
        fill: #c29e66;
      }
    </style>
  </defs>
  <path class="st0" d="M13.8,85.3h11.6c4.7,0,8.5-3.8,8.5-8.5v-25.1c0-4.7-3.8-8.5-8.5-8.5h-3.8v-.6c0-18.4,15-33.4,33.4-33.4s33.4,15,33.4,33.4v.6h-3.8c-4.7,0-8.5,3.8-8.5,8.5v25.1c0,4.7,3.8,8.5,8.5,8.5h3.8v2.9c0,3.2-2.6,5.8-5.8,5.8h-13.8c-1.2-3.8-4.8-6.6-9-6.6h-9.8c-5.2,0-9.5,4.2-9.5,9.5s4.2,9.5,9.5,9.5h9.8c4.2,0,7.7-2.8,9-6.6h13.8c6.4,0,11.5-5.2,11.5-11.5v-2.9h2.1c5.7,0,10.3-4.6,10.3-10.3v-21.7c0-5.2-4.1-9.7-8.9-10.2-.6-.1-1-.1-1.4-.1h-2.1v-.6c0-21.6-17.6-39.2-39.2-39.2-21.6,0-39.2,17.5-39.2,39.2v.6h-2.1c-.3,0-.8,0-1,0-5.2.5-9.3,5-9.3,10.2v21.7c0,5.7,4.6,10.3,10.3,10.3h0ZM59.9,100.6h-9.8c-2.1,0-3.7-1.7-3.7-3.7s1.7-3.7,3.7-3.7h9.8c2,0,3.5,1.5,3.7,3.4,0,.1,0,.2,0,.3s0,.2,0,.3c-.2,1.8-1.7,3.3-3.7,3.3h0ZM96.6,48.9c2.3.2,4.1,2.2,4.1,4.5v21.7c0,2.5-2,4.5-4.5,4.5h-11.6c-1.5,0-2.8-1.3-2.8-2.8v-25.1c0-1.5,1.3-2.8,2.8-2.8h12ZM9.2,53.4c0-2.3,1.8-4.3,4.5-4.5h11.6c1.5,0,2.8,1.3,2.8,2.8v25.1c0,1.5-1.3,2.8-2.8,2.8h-11.6c-2.5,0-4.5-2-4.5-4.5v-21.7Z"/>
</svg>